<?xml version="1.0" encoding="utf-8"?>
<!-- Generator: Adobe Illustrator 23.0.1, SVG Export Plug-In . SVG Version: 6.00 Build 0)  -->
<svg version="1.1" id="RGB_Logo_Sort" xmlns="http://www.w3.org/2000/svg" xmlns:xlink="http://www.w3.org/1999/xlink" x="0px"
	 y="0px" viewBox="0 0 457.2 311.2" style="enable-background:new 0 0 457.2 311.2;" xml:space="preserve">
<title>RGB Logo Svart</title>
<path d="M180.9,112.8l-2.1-1.3c-3.2-2.1-6.6-3.9-10.2-5.4l0,0c-1.5-0.6-3-1.2-4.5-1.7c-3.6-1.2-7.4-2.2-11.1-2.8
	c-1.6-0.2-3.2-0.4-4.9-0.6c-3.8-0.3-7.7-0.3-11.5,0c-1.6,0.1-3.3,0.3-4.9,0.6c-3.8,0.6-7.5,1.5-11.2,2.8c-1.5,0.5-3,1.1-4.5,1.7H116
	c-3.5,1.5-6.9,3.3-10.2,5.4l-2.1,1.3L93.4,93.1l1.8-1.1c3.5-2.2,7.1-4.1,10.8-5.7l1.9-0.9l3.7,7.1c1.1-0.4,2.1-0.8,3.2-1.2l-1.9-7.8
	l2-0.7c3.9-1.2,7.8-2.2,11.8-2.9l2.1-0.4l1.9,7.8l0.6-0.1c0.9-0.1,1.9-0.2,2.8-0.3v-8l2.1-0.1c2-0.1,4.1-0.2,6.1-0.2
	s4.1,0.1,6.1,0.2l2.1,0.1v8c1.1,0.1,2.2,0.2,3.4,0.4l1.9-7.8l2.1,0.4c4,0.7,8,1.7,11.8,2.9l2,0.7l-1.9,7.8c1.1,0.4,2.1,0.8,3.2,1.2
	l3.7-7.1l1.9,0.9c3.7,1.7,7.3,3.6,10.8,5.7l1.8,1.1L180.9,112.8z M99.4,94.8l6.1,11.6c2.8-1.7,5.7-3.1,8.7-4.4h0.1
	c1.6-0.7,3.2-1.3,4.8-1.8c3.9-1.3,7.9-2.4,11.9-3c1.7-0.3,3.4-0.5,5.2-0.6c4.1-0.3,8.2-0.3,12.3,0c1.7,0.2,3.5,0.4,5.2,0.6
	c4,0.6,8,1.6,11.9,2.9c1.6,0.6,3.2,1.2,4.8,1.8l0,0c3,1.3,5.9,2.8,8.8,4.4l6.1-11.6c-2.1-1.2-4.3-2.4-6.5-3.4l-3.7,7l-1.9-0.8
	l-0.8-0.3c-1.9-0.8-3.9-1.6-5.9-2.2l-2-0.7l1.9-7.7c-2.4-0.7-4.7-1.3-7.1-1.8l-1.9,7.7l-2.1-0.3c-2.4-0.4-4.8-0.7-7.1-0.9l-2.1-0.2
	v-7.9c-2.4-0.1-4.9-0.1-7.3,0v7.9l-2.1,0.2c-1.6,0.1-3.1,0.3-4.6,0.5c-0.8,0.1-1.7,0.2-2.5,0.4l-2.1,0.3l-1.9-7.7
	c-2.4,0.5-4.8,1.1-7.1,1.8l1.9,7.7l-2,0.7c-2,0.7-4,1.4-5.9,2.2l-0.8,0.3l-1.9,0.8l-3.7-7C103.7,92.3,101.5,93.5,99.4,94.8
	L99.4,94.8z"/>
<path d="M142.3,232.6c-35.2,0-63.7-28.5-63.7-63.6s28.5-63.7,63.6-63.7s63.7,28.5,63.7,63.6c0,16.9-6.7,33.1-18.6,45.1
	C175.4,225.9,159.1,232.6,142.3,232.6z M142.3,110c-32.6,0-59,26.4-59,58.9s26.4,59,58.9,59c32.6,0,59-26.4,59-58.9
	c0-15.6-6.2-30.6-17.3-41.7C172.9,116.2,157.9,109.9,142.3,110L142.3,110z"/>
<path d="M130,150.8c-5-6.7-3.6-16.3,3.1-21.3c6.7-5,16.3-3.6,21.3,3.1c4,5.4,4,12.8,0,18.2l3.4,2.5c2.5-3.3,3.9-7.4,3.9-11.6
	c0-10.7-8.7-19.4-19.4-19.4c-10.7,0-19.4,8.7-19.4,19.4c0,4.2,1.4,8.3,3.9,11.6L130,150.8z"/>
<path d="M142.2,155.4c4.2,0,7.6-3.4,7.6-7.6v-0.8h2.5v-4.8c0-5.6-4.5-10.1-10.1-10.1c-5.6,0-10.1,4.5-10.1,10.1v4.8h2.5v0.8
	C134.6,152,138,155.4,142.2,155.4z M136.3,142.3c0-3.3,2.6-5.9,5.9-5.9c3.3,0,5.9,2.6,5.9,5.9c0,0,0,0,0,0v4.8h-1.8v0.8
	c0.1,2.3-1.6,4.2-3.9,4.3c-2.3,0.1-4.2-1.6-4.3-3.9c0-0.1,0-0.3,0-0.4v-0.8h-1.8L136.3,142.3z"/>
<rect x="98.8" y="171.8" width="5.8" height="5.9"/>
<path d="M189.3,167.3v3.1h3l-8.1,8.1v-14.2l2.1,2.1l2.2-2.2l-5.9-5.9l-5.9,5.9l2.2,2.2l2.1-2.1v14.1l-8.1-8.1h2.9v-3.1h-8.3v8.4h3.1
	v-3l6.3,6.4h-12.8l-1.3-1.2l-1.1-10.4c-0.1-0.6-0.7-5.9-5.1-8.2h-0.1l-4.5-1.8l-0.7-0.3l-0.7,0.2c-2.8,0.7-5.6,1-8.4,0.9
	c-2.8,0.1-5.7-0.2-8.4-0.9l-0.7-0.2l-5.2,2h-0.1c-4.4,2.3-5.1,7.6-5.1,8.2l-1.2,10.8l-1,0.8h-4.4c0.4-1.4,0.6-2.8,0.6-4.2
	c0-8.3-6.8-15-15.1-14.9c-8.3,0-15,6.8-14.9,15.1c0,7.4,5.4,13.6,12.7,14.8h0.2c0.4,0.1,0.8,0.1,1.2,0.1l19.5,2
	c-0.7,6.6-2,13.1-3.9,19.5l2,0.7l2,0.6c2-6.7,3.4-13.6,4.1-20.5l4.4-3.7l-0.7,27.2l1.8,0.3c8.2,1.4,16.6,1.4,24.9,0l1.8-0.3
	l-0.7-27.1l4.4,3.7c0.7,6.9,2.1,13.8,4.1,20.5l4-1.3c-1.9-6.4-3.2-12.9-3.9-19.5l19.6-1.8v-6.8l10.4-10.4v3h3.1v-8.3L189.3,167.3z
	 M142.2,162.5c3,0.1,6-0.3,9-0.9l3.6,1.4c2.4,1.3,2.8,4.8,2.8,4.8l0.9,8.2h-5.1c-2,0-4.1-0.5-5.8-1.6c-1.3-1-2.5-2.1-3.5-3.4
	l-7.2-8.8C138.7,162.4,140.5,162.5,142.2,162.5L142.2,162.5z M101.7,185.6h-0.5l-1.1-0.1c-5.9-0.9-10-6.5-9-12.4
	c0.9-5.9,6.5-10,12.4-9c5.9,0.9,10,6.5,9,12.4C111.6,181.7,107,185.6,101.7,185.6L101.7,185.6z M129,182.7l-6,5.1l-12-1.2
	c1.2-1,2.3-2.1,3.2-3.4h7.9l7-5.9L129,182.7z M129.3,171.7L129.3,171.7L129.3,171.7l-3.1,2.6l0.7-6.4v-0.1c0,0,0.3-3.5,2.8-4.8
	l2-0.8l3.6,4.4L129.3,171.7z M142.3,212.7c-3.3,0-6.6-0.2-9.8-0.7l0.2-8.9l0,0l0.7-29.4l4.5-3.8l3,3.7c1.3,1.7,2.9,3.2,4.6,4.4
	c1.8,1.1,3.9,1.8,6,2.1l0.8,31.9C149,212.4,145.6,212.6,142.3,212.7L142.3,212.7z M180,186.1l-18.1,1.7l-9-7.6h0.7h5.9l3.4,3h17.2
	L180,186.1z"/>
<path d="M241.5,166.1c0-15.5,9.8-25,21.8-25c12,0,21.8,9.5,21.8,25c0,16.1-9.8,25.7-21.8,25.7S241.5,182.2,241.5,166.1z
	 M278.9,166.1c0-13.4-6.9-19.4-15.6-19.4s-15.6,6-15.6,19.4s7.2,20.1,15.6,20.1S278.9,179.5,278.9,166.1z"/>
<path d="M305.8,155.1c6.6,0,11.4,2.9,13.2,7.6l-4.4,2.2c-1.5-3.1-4.7-4.9-9-4.9c-4.5,0-7.6,1.8-7.6,4.8c0,2.6,1.7,4.1,5.5,5l5.1,1
	c7.7,1.5,11.4,5,11.4,10.3c0,6.4-5.6,10.7-13.9,10.7c-7.2,0-12.4-2.8-14.9-8l4.4-2.3c1.8,3.5,5.3,5.5,10.3,5.5s8.5-2.2,8.5-5.6
	c0-2.9-1.7-4.6-5.8-5.4l-6.1-1.2c-6.6-1.3-10.1-4.7-10.1-9.6C292.5,159.4,298,155.1,305.8,155.1z"/>
<path d="M337.7,191.6c-6,0-8.9-3.7-8.9-9.4v-40.4h5.8v40.2c0,3.1,1.7,4.6,4.5,4.6c0.7,0,1.4-0.1,2.1-0.3v5
	C340.1,191.4,338.9,191.6,337.7,191.6z"/>
<path d="M346.1,173.4c0-11.1,7.2-18.3,16.3-18.3s16.2,7.2,16.2,18.3c0,11.2-7.3,18.5-16.2,18.5S346.1,184.6,346.1,173.4z
	 M372.6,173.4c0-9-4.7-13.3-10.2-13.3s-10.3,4.2-10.3,13.3s4.6,13.5,10.3,13.5S372.6,182.4,372.6,173.4z"/>
</svg>
