<svg id="RGB_Logo_Hvit" data-name="RGB Logo Hvit" xmlns="http://www.w3.org/2000/svg" viewBox="0 0 457.26 311"><defs><style>.cls-1{fill:#fff;}</style></defs><title>RGB Logo Hvit</title><path class="cls-1" d="M180.73,112.4l-1.92-1.23a66.64,66.64,0,0,0-10.2-5.39l0,0c-1.49-.63-3-1.21-4.54-1.73a67.27,67.27,0,0,0-11.19-2.77c-1.61-.25-3.25-.45-4.87-.59a69.48,69.48,0,0,0-11.54,0c-1.63.14-3.27.34-4.87.59A67,67,0,0,0,120.37,104c-1.53.52-3.06,1.1-4.53,1.73l-.06,0a67,67,0,0,0-10.19,5.39l-1.93,1.23L93.48,93l1.66-1a90.66,90.66,0,0,1,10.76-5.69l1.8-.79,3.71,7.07c1.14-.46,2.3-.9,3.46-1.32L113,83.49l1.86-.6A90.22,90.22,0,0,1,126.64,80l1.93-.34,1.91,7.76.71-.1c1-.14,2-.25,3-.35V79l2-.13c2-.13,4.08-.2,6.09-.2s4.06.07,6.08.2l2,.13v8c1.22.12,2.45.27,3.68.45l1.91-7.76,1.93.34a90.61,90.61,0,0,1,11.82,2.91l1.86.6-1.92,7.76c1.17.42,2.33.86,3.46,1.32l3.72-7.07,1.79.79A89.13,89.13,0,0,1,189.25,92l1.66,1ZM99,94.53l6.24,11.91a72.06,72.06,0,0,1,8.89-4.52l.07,0c1.55-.66,3.17-1.27,4.79-1.83a72.47,72.47,0,0,1,11.89-2.94c1.71-.27,3.45-.48,5.18-.62a73.57,73.57,0,0,1,12.24,0c1.72.14,3.47.35,5.17.62a72.47,72.47,0,0,1,11.89,2.94c1.62.56,3.24,1.17,4.81,1.84l.06,0a71.23,71.23,0,0,1,8.88,4.52l6.25-11.91c-2.21-1.29-4.49-2.5-6.81-3.59l-3.68,7-1.78-.78-.78-.33c-1.94-.82-3.94-1.57-6-2.24l-1.85-.6,1.9-7.69c-2.46-.73-5-1.35-7.48-1.85l-1.89,7.69-1.92-.32c-2.36-.4-4.77-.69-7.15-.87l-1.94-.14V82.9c-2.58-.11-5.13-.11-7.7,0v7.92l-1.94.14c-1.55.12-3.12.28-4.66.49-.83.11-1.67.24-2.5.38l-1.91.32-1.9-7.69c-2.51.5-5,1.12-7.47,1.85L119.86,94l-1.84.6c-2,.67-4,1.42-6,2.24l-.78.33L109.5,98l-3.68-7C103.51,92,101.23,93.24,99,94.53Z"/><path class="cls-1" d="M142.17,232.37a63.54,63.54,0,1,1,44.93-18.61A63.13,63.13,0,0,1,142.17,232.37Zm0-122.68A59.13,59.13,0,1,0,184,127,58.75,58.75,0,0,0,142.17,109.69Z"/><path class="cls-1" d="M129.77,150.82a15.28,15.28,0,0,1-3.05-9.22,15.42,15.42,0,0,1,30.84,0,15.28,15.28,0,0,1-3.05,9.22l3.08,2.29a19.26,19.26,0,1,0-30.9,0Z"/><path class="cls-1" d="M142.14,155.19a7.43,7.43,0,0,0,7.42-7.43V147h2.51v-4.85a9.93,9.93,0,1,0-19.86,0V147h2.51v.75A7.43,7.43,0,0,0,142.14,155.19Zm-6.09-13a6.09,6.09,0,0,1,12.18,0V147h-1.81v.75a4.28,4.28,0,0,1-8.56,0V147h-1.81Z"/><rect class="cls-1" x="98.63" y="171.73" width="5.85" height="5.85"/><path class="cls-1" d="M189.23,167.37v2.79h3.42l-8.74,8.74v-15l2.39,2.39,2-2-5.75-5.75-5.79,5.79,2,2,2.42-2.42v15l-8.72-8.72h3.37v-2.79h-8.14v8.19h2.8v-3.42l6.93,6.93H164.09l-1.43-1.28-1.15-10.48c0-.53-.65-5.82-5-8.07l-4.6-1.76-.63-.23-.63.2a32.07,32.07,0,0,1-8.48.92,31.84,31.84,0,0,1-8.47-.92l-.64-.21-5,1.91-.2.09c-4.38,2.25-5,7.54-5,8.07l-1.19,10.86-1.08.9h-4.73a14.88,14.88,0,1,0-16.5,10.29h0l.19,0c.4.05.8.09,1.21.12l19.69,2a109,109,0,0,1-3.92,19.72h0l1.82.59,1.83.6a110.05,110.05,0,0,0,4.1-20.57l4.73-4-.67,27.43,1.61.3a72.06,72.06,0,0,0,24.8,0l1.6-.3-.67-27.4,4.76,4a109.82,109.82,0,0,0,4.1,20.54l3.65-1.19a108.27,108.27,0,0,1-3.92-19.7l19.66-1.83v-6.75l10.79-10.79v3.37h2.79v-8.14Zm-47.09-5.16a38,38,0,0,0,9-.92l3.71,1.41c2.52,1.37,2.87,4.93,2.88,5l.92,8.42h-5.26a11.18,11.18,0,0,1-5.92-1.62,18,18,0,0,1-3.55-3.45l-7.35-9.13A44.4,44.4,0,0,0,142.14,162.21ZM101.56,185.7l-.55,0-1.14-.11a11,11,0,1,1,1.69.13Zm27.5-3-6.16,5.23-12.52-1.26a15,15,0,0,0,3.55-3.72h8l7.3-6.14Zm-3.23-8.07.76-6.88v-.05s.36-3.59,2.88-5l2.13-.81,3.77,4.68Zm16.34,38.18a70.44,70.44,0,0,1-10-.73l.22-9h0l.73-29.52,4.65-3.92,3.09,3.82a20.8,20.8,0,0,0,4.56,4.36,14.76,14.76,0,0,0,6.12,2.08l.79,32.19A69.79,69.79,0,0,1,142.17,212.77ZM180,186.18l-18.38,1.72-9.44-8c.38,0,.77,0,1.17,0h5.93l3.34,3H180Z"/><path class="cls-1" d="M241.51,166.06c0-15.54,9.78-25.06,21.77-25.06s21.78,9.52,21.78,25.06c0,16.08-9.78,25.73-21.78,25.73S241.51,182.14,241.51,166.06Zm37.39,0c0-13.4-6.91-19.43-15.62-19.43s-15.61,6-15.61,19.43,7.17,20.1,15.61,20.1S278.9,179.46,278.9,166.06Z"/><path class="cls-1" d="M305.8,155c6.56,0,11.39,2.88,13.26,7.57l-4.35,2.21c-1.47-3.15-4.69-4.89-9-4.89-4.55,0-7.57,1.81-7.57,4.82,0,2.62,1.68,4.16,5.5,5l5.16,1c7.7,1.54,11.39,4.95,11.39,10.31,0,6.37-5.63,10.72-13.94,10.72-7.24,0-12.39-2.81-14.94-8l4.42-2.34c1.81,3.62,5.36,5.56,10.39,5.56s8.51-2.21,8.51-5.56c0-3-1.75-4.56-5.83-5.43l-6.1-1.2c-6.57-1.34-10.12-4.69-10.12-9.59C292.53,159.36,298,155,305.8,155Z"/><path class="cls-1" d="M337.76,191.52c-6,0-8.91-3.68-8.91-9.44V141.61h5.76v40.2c0,3.08,1.67,4.55,4.49,4.55a8.18,8.18,0,0,0,2.14-.26v5A15.41,15.41,0,0,1,337.76,191.52Z"/><path class="cls-1" d="M346.13,173.3c0-11.06,7.24-18.29,16.28-18.29s16.22,7.23,16.22,18.29c0,11.25-7.31,18.49-16.22,18.49S346.13,184.55,346.13,173.3Zm26.53,0c0-9.05-4.69-13.27-10.25-13.27s-10.31,4.22-10.31,13.27,4.62,13.47,10.31,13.47S372.66,182.34,372.66,173.3Z"/></svg>