<svg xmlns="http://www.w3.org/2000/svg" xmlns:xlink="http://www.w3.org/1999/xlink" viewBox="0 0 288 441"><defs><style>.cls-1{fill:none;}.cls-2{fill:#fff;}.cls-3{font-size:13px;fill:#333;}.cls-3,.cls-35{font-family:OsloSans-Regular, Oslo Sans;}.cls-4{letter-spacing:-0.03em;}.cls-5{letter-spacing:-0.04em;}.cls-6{font-size:11px;}.cls-7{letter-spacing:-0.02em;}.cls-8{letter-spacing:0em;}.cls-9{letter-spacing:-0.02em;}.cls-10{letter-spacing:-0.03em;}.cls-11{letter-spacing:-0.02em;}.cls-12{letter-spacing:0.52em;}.cls-13{letter-spacing:-0.04em;}.cls-14{letter-spacing:-0.01em;}.cls-15{letter-spacing:-0.02em;}.cls-16{letter-spacing:-0.01em;}.cls-17{letter-spacing:-0.03em;}.cls-18{letter-spacing:-0.03em;}.cls-19{letter-spacing:-0.03em;}.cls-20{letter-spacing:-0.02em;}.cls-21{letter-spacing:0em;}.cls-22{letter-spacing:-0.02em;}.cls-23{letter-spacing:0em;}.cls-24{letter-spacing:-0.02em;}.cls-25{letter-spacing:-0.01em;}.cls-26{letter-spacing:-0.02em;}.cls-27{letter-spacing:-0.03em;}.cls-28{letter-spacing:0em;}.cls-29{letter-spacing:-0.01em;}.cls-30{letter-spacing:-0.01em;}.cls-31{letter-spacing:-0.02em;}.cls-32{letter-spacing:-0.03em;}.cls-33{letter-spacing:-0.03em;}.cls-34{letter-spacing:-0.04em;}.cls-35{font-size:15px;fill:#737373;}.cls-36{letter-spacing:-0.03em;}.cls-37{letter-spacing:-0.04em;}.cls-38{fill:#e9654b;}.cls-39{fill:#b6cfea;}.cls-40{fill:#e6f5f8;}.cls-41{fill:#d0e8f0;}.cls-42{fill:#ee794b;}.cls-43{clip-path:url(#clip-path);}.cls-44{opacity:0.22;}.cls-45{fill:#e34e3b;}.cls-46{opacity:0.5;}.cls-47{fill:#fbdfc3;}.cls-48{fill:#010101;}.cls-49{opacity:0.25;}.cls-50{fill:#449fd8;}.cls-51{fill:#f04d5c;}</style><clipPath id="clip-path"><polyline class="cls-1" points="149.15 90.16 148.56 103.71 139.65 103.71 139.16 90.16"/></clipPath></defs><g id="Layer_2" data-name="Layer 2"><g id="Kubernetes_Components" data-name="Kubernetes Components"><rect class="cls-2" width="288" height="441"/><text class="cls-3" transform="translate(18 128.31)">A<tspan class="cls-4" x="8.94" y="0">r</tspan><tspan class="cls-5" x="14.59" y="0">g</tspan><tspan x="21.79" y="0">oCD</tspan><tspan class="cls-6"><tspan class="cls-7" x="0" y="19">C</tspan><tspan x="7.63" y="19">o</tspan><tspan class="cls-8" x="14.07" y="19">n</tspan><tspan x="20.36" y="19">ti</tspan><tspan class="cls-8" x="27.89" y="19">n</tspan><tspan x="34.18" y="19">uous De</tspan><tspan class="cls-8" x="75.48" y="19">p</tspan><tspan class="cls-9" x="82.23" y="19">l</tspan><tspan class="cls-10" x="85.44" y="19">o</tspan><tspan x="91.54" y="19">yme</tspan><tspan class="cls-8" x="113.43" y="19">n</tspan><tspan x="119.72" y="19">t P</tspan><tspan class="cls-10" x="134" y="19">r</tspan><tspan class="cls-11" x="138.8" y="19">o</tspan><tspan x="145.03" y="19">vider</tspan><tspan x="0" y="38">▪</tspan><tspan class="cls-12" x="6.42" y="38">	</tspan><tspan class="cls-13" x="15" y="38">S</tspan><tspan x="21.83" y="38">ynch</tspan><tspan class="cls-10" x="46.7" y="38">r</tspan><tspan x="51.5" y="38">oni</tspan><tspan class="cls-7" x="67.08" y="38">z</tspan><tspan x="72.74" y="38">es k8s </tspan><tspan class="cls-14" x="108.96" y="38">s</tspan><tspan class="cls-15" x="114.52" y="38">t</tspan><tspan class="cls-16" x="119.01" y="38">a</tspan><tspan class="cls-17" x="124.99" y="38">t</tspan><tspan x="129.37" y="38">e with a Git </tspan><tspan class="cls-18" x="191.69" y="38">r</tspan><tspan x="196.49" y="38">eposi</tspan><tspan class="cls-19" x="224.37" y="38">t</tspan><tspan x="228.75" y="38">o</tspan><tspan class="cls-20" x="235.19" y="38">r</tspan><tspan x="240.04" y="38">y</tspan><tspan x="0" y="57">▪</tspan><tspan class="cls-12" x="6.42" y="57">	</tspan><tspan x="15" y="57">Ena</tspan><tspan class="cls-8" x="33.94" y="57">b</tspan><tspan class="cls-9" x="40.7" y="57">l</tspan><tspan x="43.91" y="57">es </tspan><tspan class="cls-10" x="58.57" y="57">r</tspan><tspan class="cls-8" x="63.37" y="57">ol</tspan><tspan x="73.16" y="57">lb</tspan><tspan class="cls-16" x="83.33" y="57">a</tspan><tspan x="89.32" y="57">ck </tspan><tspan class="cls-11" x="104.35" y="57">o</tspan><tspan x="110.59" y="57">f </tspan><tspan class="cls-14" x="117.52" y="57">s</tspan><tspan class="cls-15" x="123.08" y="57">t</tspan><tspan class="cls-16" x="127.56" y="57">a</tspan><tspan class="cls-17" x="133.55" y="57">t</tspan><tspan x="137.93" y="57">e b</tspan><tspan class="cls-8" x="153.7" y="57">a</tspan><tspan class="cls-21" x="159.79" y="57">s</tspan><tspan x="165.4" y="57">ed on </tspan><tspan class="cls-22" x="196.69" y="57">c</tspan><tspan class="cls-23" x="202.65" y="57">ommit </tspan><tspan x="15" y="71">hi</tspan><tspan class="cls-14" x="24.16" y="71">s</tspan><tspan class="cls-17" x="29.72" y="71">t</tspan><tspan x="34.1" y="71">o</tspan><tspan class="cls-24" x="40.53" y="71">r</tspan><tspan x="45.38" y="71">y</tspan><tspan x="0" y="90">▪</tspan><tspan class="cls-12" x="6.42" y="90">	</tspan><tspan x="15" y="90">P</tspan><tspan class="cls-10" x="21.78" y="90">r</tspan><tspan class="cls-11" x="26.57" y="90">o</tspan><tspan x="32.81" y="90">vides </tspan><tspan class="cls-25" x="62.83" y="90">s</tspan><tspan x="68.4" y="90">upe</tspan><tspan class="cls-26" x="87.51" y="90">r</tspan><tspan x="92.42" y="90">fici</tspan><tspan class="cls-8" x="108.39" y="90">a</tspan><tspan x="114.48" y="90">l </tspan><tspan class="cls-16" x="120.7" y="90">a</tspan><tspan x="126.68" y="90">dmini</tspan><tspan class="cls-14" x="155.05" y="90">s</tspan><tspan x="160.61" y="90">t</tspan><tspan class="cls-27" x="165.29" y="90">r</tspan><tspan class="cls-16" x="170.07" y="90">a</tspan><tspan x="176.05" y="90">tion </tspan><tspan class="cls-11" x="199.14" y="90">o</tspan><tspan class="cls-23" x="205.38" y="90">f </tspan><tspan class="cls-28" x="212.31" y="90">c</tspan><tspan class="cls-21" x="218.47" y="90">l</tspan><tspan x="221.81" y="90">u</tspan><tspan class="cls-29" x="227.97" y="90">s</tspan><tspan class="cls-19" x="233.52" y="90">t</tspan><tspan x="237.9" y="90">er </tspan><tspan x="15" y="104">ap</tspan><tspan class="cls-8" x="27.88" y="104">p</tspan><tspan x="34.62" y="104">li</tspan><tspan class="cls-17" x="40.86" y="104">c</tspan><tspan class="cls-16" x="46.73" y="104">a</tspan><tspan x="52.72" y="104">tions</tspan></tspan></text><text class="cls-3" transform="translate(18 317.31)">D<tspan class="cls-30" x="9.32" y="0">e</tspan><tspan x="16.47" y="0">x</tspan><tspan class="cls-6"><tspan class="cls-24" x="0" y="19">O</tspan><tspan class="cls-7" x="7.96" y="19">A</tspan><tspan x="15.29" y="19">uth2 </tspan><tspan class="cls-8" x="42.32" y="19">a</tspan><tspan x="48.41" y="19">s a </tspan><tspan class="cls-31" x="65.82" y="19">C</tspan><tspan class="cls-32" x="73.46" y="19">o</tspan><tspan x="79.61" y="19">gni</tspan><tspan class="cls-17" x="95.27" y="19">t</tspan><tspan x="99.65" y="19">o hand</tspan><tspan class="cls-9" x="134.38" y="19">l</tspan><tspan x="137.59" y="19">er</tspan><tspan x="0" y="38">▪</tspan><tspan class="cls-12" x="6.42" y="38">	</tspan><tspan x="15" y="38">Hand</tspan><tspan class="cls-9" x="41.91" y="38">l</tspan><tspan x="45.12" y="38">es </tspan><tspan class="cls-16" x="59.78" y="38">a</tspan><tspan x="65.77" y="38">uthe</tspan><tspan class="cls-8" x="89.12" y="38">n</tspan><tspan x="95.41" y="38">ti</tspan><tspan class="cls-17" x="102.93" y="38">c</tspan><tspan class="cls-16" x="108.81" y="38">a</tspan><tspan x="114.79" y="38">tion </tspan><tspan class="cls-10" x="137.88" y="38">f</tspan><tspan x="141.67" y="38">or A</tspan><tspan class="cls-33" x="163.61" y="38">r</tspan><tspan class="cls-34" x="168.38" y="38">g</tspan><tspan x="174.48" y="38">oCD</tspan><tspan x="0" y="57">▪</tspan><tspan class="cls-12" x="6.42" y="57">	</tspan><tspan x="15" y="57">Hand</tspan><tspan class="cls-9" x="41.91" y="57">l</tspan><tspan x="45.12" y="57">es </tspan><tspan class="cls-16" x="59.78" y="57">a</tspan><tspan x="65.77" y="57">uthe</tspan><tspan class="cls-8" x="89.12" y="57">n</tspan><tspan x="95.41" y="57">ti</tspan><tspan class="cls-17" x="102.93" y="57">c</tspan><tspan class="cls-16" x="108.81" y="57">a</tspan><tspan x="114.79" y="57">tion </tspan><tspan class="cls-10" x="137.88" y="57">f</tspan><tspan x="141.67" y="57">or G</tspan><tspan class="cls-27" x="164.2" y="57">r</tspan><tspan class="cls-14" x="168.98" y="57">a</tspan><tspan class="cls-10" x="174.98" y="57">f</tspan><tspan x="178.77" y="57">ana</tspan></tspan></text><text class="cls-35" transform="translate(116.44 44.94)">A<tspan class="cls-36" x="10.32" y="0">r</tspan><tspan class="cls-37" x="16.83" y="0">g</tspan><tspan x="25.14" y="0">oCD</tspan></text><path class="cls-38" d="M139.49,101.47a2.78,2.78,0,0,1-.49.89.89.89,0,0,1-.7.3,12.12,12.12,0,0,1-1.48.3l1.48.2a.82.82,0,0,1,.5.09.83.83,0,0,0,.69-.29Z"/><path class="cls-38" d="M148.56,101.47a2.58,2.58,0,0,0,.49.89.88.88,0,0,0,.69.3,12.68,12.68,0,0,0,1.49.3s-.7.1-1.59.2a.8.8,0,0,0-.49.09c-.59,0-.69-.29-.69-.29Z"/><circle class="cls-39" cx="144.1" cy="91.68" r="10.68"/><circle class="cls-40" cx="144.1" cy="91.68" r="10.29"/><circle class="cls-41" cx="144.1" cy="91.88" r="8.41"/><g id="Body"><path class="cls-42" d="M139.2,96.08s.68,11,.68,11.19.1.3-.39.49-2,.59-2,.59h2.3s1.09-.94,1.09-1.14.3-4.45.3-4.45.1,5,.1,5.24-.1.5-.8.69l-2,.4h2.26c1.42,0,1.42-.91,1.42-.91l.3-4.55s.1,4.55.1,5.06-.3.7-1.41.91c-.71.2-1.62.4-1.62.4h2.6a1.47,1.47,0,0,0,1.46-1l2.14-10.9Z"/><path class="cls-42" d="M149,96.08s-.68,11-.68,11.19-.1.3.39.49,2,.59,2,.59h-2.3s-1.09-.94-1.09-1.14-.3-4.45-.3-4.45-.1,5-.1,5.24.1.5.79.69l2,.4h-2.27c-1.41,0-1.41-.91-1.41-.91l-.31-4.55s-.1,4.55-.1,5.06.31.7,1.42.91c.71.2,1.62.4,1.62.4h-2.6a1.47,1.47,0,0,1-1.46-1l-2.14-10.9Z"/><path class="cls-42" d="M149.15,90.4a5,5,0,0,1-5,4.94,4.95,4.95,0,1,1,5-4.94Z"/><g class="cls-43"><circle class="cls-42" cx="144.2" cy="93.07" r="8.8"/></g><g class="cls-44"><path class="cls-45" d="M148.85,95.84s.6-5.25-.2-7.22a5.09,5.09,0,0,0-4.94-3.17s2,.79,2.08,3.76c.09,2.08,0,5.14,0,5.14Z"/></g></g><g id="Face"><g class="cls-46"><circle class="cls-47" cx="142.13" cy="87.73" r="0.69"/></g><path class="cls-48" d="M145.88,97.81c0,1.69-.79,2.77-1.78,2.77s-1.78-1.28-1.78-3c0,0,.8,1.58,1.88,1.58S145.88,97.81,145.88,97.81Z"/><path class="cls-2" d="M145.88,97.81a1.64,1.64,0,0,1-1.78,1.69,1.7,1.7,0,0,1-1.68-1.78,2.74,2.74,0,0,0,1.88,1A1.87,1.87,0,0,0,145.88,97.81Z"/><circle class="cls-38" cx="147.57" cy="93.17" r="3.07"/><circle class="cls-38" cx="140.64" cy="93.17" r="3.07"/><circle class="cls-2" cx="147.57" cy="93.17" r="2.37"/><circle class="cls-2" cx="140.44" cy="93.17" r="2.37"/><circle class="cls-48" cx="140.44" cy="92.87" r="0.69"/><circle class="cls-48" cx="147.57" cy="92.87" r="0.69"/></g><path class="cls-39" d="M133.2,94.36h0a.46.46,0,0,1-.49-.44v-4a.46.46,0,0,1,.44-.49h0a.47.47,0,0,1,.5.44v4a.46.46,0,0,1-.44.49Z"/><path class="cls-39" d="M154.8,94.36h0a.47.47,0,0,1-.5-.44v-4a.46.46,0,0,1,.44-.49h.06a.46.46,0,0,1,.49.44v4a.46.46,0,0,1-.44.49Z"/><circle class="cls-2" cx="140.74" cy="83.77" r="0.49"/><path class="cls-2" d="M137.18,97.12a.34.34,0,0,1-.3-.1,8.43,8.43,0,0,1-1.78-5.24,8.91,8.91,0,0,1,1.19-4.45,9.58,9.58,0,0,1,3.17-3.16.35.35,0,1,1,.39.59,8,8,0,0,0-4,6.92,7.76,7.76,0,0,0,1.68,4.85.34.34,0,0,1-.1.49C137.28,97.12,137.28,97.12,137.18,97.12Z"/><g class="cls-49"><path class="cls-38" d="M148.59,101.77V101a9.33,9.33,0,0,1-4.65,1.58,8.93,8.93,0,0,1-4.55-1.58l.1.79a6.42,6.42,0,0,0,4.55,1.58A7.69,7.69,0,0,0,148.59,101.77Z"/></g><path class="cls-50" d="M153.27,283.75a7.21,7.21,0,0,0,4-5.3,14.57,14.57,0,0,0-9.27-8.06A11.06,11.06,0,0,1,150,277.3,9.36,9.36,0,0,1,153.27,283.75ZM135.81,280a7.21,7.21,0,0,0-6.25,2.3,14.59,14.59,0,0,0,3.63,11.88,11.1,11.1,0,0,1,1.95-7A9.3,9.3,0,0,1,135.81,280Zm1.64,11a7.21,7.21,0,0,0,1,6.92,14.63,14.63,0,0,0,11,0,11,11,0,0,1-5.69-4.21A9.31,9.31,0,0,1,137.45,291Zm8.61-15.65A7.23,7.23,0,0,0,141.7,270a14.59,14.59,0,0,0-10,6.62,11.13,11.13,0,0,1,7,.18A9.28,9.28,0,0,1,146.06,275.35ZM152.57,288a9.21,9.21,0,0,1-4.49,4.75,7.27,7.27,0,0,0,6.54,1.67,14.61,14.61,0,0,0,4-10A11,11,0,0,1,152.57,288Z"/><circle class="cls-51" cx="144.03" cy="284.41" r="4.57"/></g></g></svg>