<svg xmlns="http://www.w3.org/2000/svg" xmlns:xlink="http://www.w3.org/1999/xlink" viewBox="0 0 288 801"><defs><style>.cls-1{fill:#fff;}.cls-2{font-size:13px;fill:#333;}.cls-2,.cls-45{font-family:OsloSans-Regular, Oslo Sans;}.cls-3{letter-spacing:-0.03em;}.cls-4{letter-spacing:-0.01em;}.cls-5{letter-spacing:0em;}.cls-6{font-size:11px;}.cls-7{letter-spacing:-0.02em;}.cls-8{letter-spacing:-0.01em;}.cls-9{letter-spacing:0em;}.cls-10{letter-spacing:-0.01em;}.cls-11{letter-spacing:-0.02em;}.cls-12{letter-spacing:0.52em;}.cls-13{letter-spacing:-0.02em;}.cls-14{letter-spacing:0em;}.cls-15{letter-spacing:-0.03em;}.cls-16{letter-spacing:-0.02em;}.cls-17{letter-spacing:0em;}.cls-18{letter-spacing:-0.01em;}.cls-19{letter-spacing:-0.03em;}.cls-20{letter-spacing:-0.01em;}.cls-21{letter-spacing:-0.02em;}.cls-22{letter-spacing:-0.03em;}.cls-23{letter-spacing:-0.02em;}.cls-24{letter-spacing:-0.08em;}.cls-25{letter-spacing:-0.03em;}.cls-26{letter-spacing:-0.03em;}.cls-27{letter-spacing:-0.01em;}.cls-28{letter-spacing:-0.02em;}.cls-29{letter-spacing:-0.01em;}.cls-30{letter-spacing:-0.03em;}.cls-31{letter-spacing:-0.01em;}.cls-32{letter-spacing:-0.03em;}.cls-33{letter-spacing:-0.02em;}.cls-34{letter-spacing:-0.03em;}.cls-35{letter-spacing:0em;}.cls-36{letter-spacing:-0.04em;}.cls-37{letter-spacing:-0.03em;}.cls-38{letter-spacing:0em;}.cls-39{letter-spacing:-0.02em;}.cls-40{letter-spacing:-0.08em;}.cls-41{letter-spacing:-0.07em;}.cls-42{letter-spacing:-0.04em;}.cls-43{letter-spacing:-0.02em;}.cls-44{letter-spacing:-0.15em;}.cls-45{font-size:15px;fill:#737373;}.cls-46{letter-spacing:-0.03em;}.cls-47{letter-spacing:0em;}.cls-48{fill:url(#linear-gradient);}.cls-49{fill:url(#linear-gradient-2);}.cls-50{fill:url(#linear-gradient-3);}.cls-51{fill:url(#linear-gradient-4);}.cls-52{fill:url(#linear-gradient-5);}.cls-53{fill:url(#linear-gradient-6);}.cls-54{fill:url(#linear-gradient-7);}.cls-55{fill:url(#linear-gradient-8);}.cls-56{fill:url(#linear-gradient-9);}.cls-57{fill:url(#linear-gradient-10);}.cls-58{fill:url(#linear-gradient-11);}.cls-59{fill:url(#linear-gradient-12);}.cls-60{fill:url(#linear-gradient-13);}.cls-61{fill:url(#linear-gradient-14);}.cls-62{fill:url(#linear-gradient-15);}.cls-63{fill:url(#linear-gradient-16);}.cls-64{fill:url(#linear-gradient-17);}.cls-65{fill:#e6522c;}</style><linearGradient id="linear-gradient" x1="-175.12" y1="1050.1" x2="-175.12" y2="1050.19" gradientTransform="matrix(256, 0, 0, -278.2, 44975.66, 292432.31)" gradientUnits="userSpaceOnUse"><stop offset="0" stop-color="#fff100"/><stop offset="1" stop-color="#f05a28"/></linearGradient><linearGradient id="linear-gradient-2" x1="724.95" y1="1139.61" x2="724.95" y2="1172.83" gradientTransform="matrix(0.98, -0.2, -0.2, -0.98, -343.59, 1708.19)" gradientUnits="userSpaceOnUse"><stop offset="0" stop-color="#f9ec1c"/><stop offset="1" stop-color="#f05a2b"/></linearGradient><linearGradient id="linear-gradient-3" x1="720.5" y1="1140.56" x2="720.5" y2="1173.78" xlink:href="#linear-gradient-2"/><linearGradient id="linear-gradient-4" x1="734.42" y1="1140.56" x2="734.42" y2="1173.78" xlink:href="#linear-gradient-2"/><linearGradient id="linear-gradient-5" x1="727.3" y1="1140.56" x2="727.3" y2="1173.78" xlink:href="#linear-gradient-2"/><linearGradient id="linear-gradient-6" x1="723.9" y1="1140.56" x2="723.9" y2="1173.78" xlink:href="#linear-gradient-2"/><linearGradient id="linear-gradient-7" x1="720.5" y1="1140.56" x2="720.5" y2="1173.78" xlink:href="#linear-gradient-2"/><linearGradient id="linear-gradient-8" x1="734.42" y1="1140.56" x2="734.42" y2="1173.78" xlink:href="#linear-gradient-2"/><linearGradient id="linear-gradient-9" x1="727.31" y1="1140.56" x2="727.31" y2="1173.78" xlink:href="#linear-gradient-2"/><linearGradient id="linear-gradient-10" x1="723.9" y1="1140.56" x2="723.9" y2="1173.78" xlink:href="#linear-gradient-2"/><linearGradient id="linear-gradient-11" x1="719.87" y1="1141.2" x2="719.87" y2="1172.71" xlink:href="#linear-gradient-2"/><linearGradient id="linear-gradient-12" x1="721.13" y1="1140.33" x2="721.13" y2="1174.16" xlink:href="#linear-gradient-2"/><linearGradient id="linear-gradient-13" x1="723.29" y1="1138.52" x2="723.29" y2="1177.15" xlink:href="#linear-gradient-2"/><linearGradient id="linear-gradient-14" x1="724.55" y1="1139.71" x2="724.55" y2="1175.18" xlink:href="#linear-gradient-2"/><linearGradient id="linear-gradient-15" x1="726.68" y1="1142.13" x2="726.68" y2="1171.18" xlink:href="#linear-gradient-2"/><linearGradient id="linear-gradient-16" x1="727.94" y1="1141.71" x2="727.94" y2="1171.87" xlink:href="#linear-gradient-2"/><linearGradient id="linear-gradient-17" x1="130.53" y1="1389.28" x2="104.46" y2="1381.23" gradientTransform="matrix(1.6, 0, 0, -1.6, -33.14, 2883.66)" xlink:href="#linear-gradient"/></defs><g id="Layer_2" data-name="Layer 2"><g id="Kubernetes_Components" data-name="Kubernetes Components"><rect class="cls-1" width="288" height="801"/><text class="cls-2" transform="translate(18 128.28)">P<tspan class="cls-3" x="8.01" y="0">r</tspan><tspan x="13.68" y="0">om</tspan><tspan class="cls-4" x="32.69" y="0">e</tspan><tspan x="39.87" y="0">th</tspan><tspan class="cls-5" x="52.88" y="0">e</tspan><tspan x="60.16" y="0">us</tspan><tspan class="cls-6"><tspan class="cls-7" x="0" y="19">T</tspan><tspan x="6.44" y="19">ime </tspan><tspan class="cls-8" x="27.93" y="19">s</tspan><tspan x="33.54" y="19">e</tspan><tspan class="cls-9" x="39.72" y="19">r</tspan><tspan x="44.82" y="19">ies d</tspan><tspan class="cls-10" x="69.05" y="19">a</tspan><tspan class="cls-11" x="75.03" y="19">t</tspan><tspan x="79.52" y="19">ab</tspan><tspan class="cls-9" x="92.41" y="19">a</tspan><tspan class="cls-8" x="98.51" y="19">s</tspan><tspan x="104.12" y="19">e</tspan><tspan x="0" y="38">▪</tspan><tspan class="cls-12" x="6.42" y="38">	</tspan><tspan x="15" y="38">Ena</tspan><tspan class="cls-9" x="33.94" y="38">b</tspan><tspan class="cls-13" x="40.7" y="38">l</tspan><tspan x="43.91" y="38">es </tspan><tspan class="cls-14" x="58.57" y="38">s</tspan><tspan x="64.18" y="38">c</tspan><tspan class="cls-15" x="70.36" y="38">r</tspan><tspan x="75.14" y="38">aping </tspan><tspan class="cls-16" x="106.5" y="38">o</tspan><tspan class="cls-17" x="112.73" y="38">f m</tspan><tspan class="cls-18" x="129.32" y="38">e</tspan><tspan x="135.39" y="38">t</tspan><tspan class="cls-9" x="140.08" y="38">r</tspan><tspan x="145.18" y="38">i</tspan><tspan class="cls-14" x="148.02" y="38">c</tspan><tspan x="154.15" y="38">s f</tspan><tspan class="cls-19" x="166.74" y="38">r</tspan><tspan x="171.54" y="38">om pods</tspan><tspan x="0" y="57">▪</tspan><tspan class="cls-12" x="6.42" y="57">	</tspan><tspan class="cls-15" x="15" y="57">R</tspan><tspan class="cls-20" x="21.81" y="57">e</tspan><tspan x="27.88" y="57">t</tspan><tspan class="cls-9" x="32.57" y="57">r</tspan><tspan x="37.67" y="57">i</tspan><tspan class="cls-21" x="40.51" y="57">e</tspan><tspan class="cls-11" x="46.53" y="57">v</tspan><tspan x="52.13" y="57">es </tspan><tspan class="cls-13" x="66.79" y="57">l</tspan><tspan class="cls-22" x="70" y="57">o</tspan><tspan x="76.15" y="57">g d</tspan><tspan class="cls-10" x="92.2" y="57">a</tspan><tspan class="cls-11" x="98.18" y="57">t</tspan><tspan x="102.67" y="57">a f</tspan><tspan class="cls-19" x="115.72" y="57">r</tspan><tspan x="120.51" y="57">om </tspan><tspan class="cls-15" x="139.42" y="57">L</tspan><tspan x="145.21" y="57">o</tspan><tspan class="cls-20" x="151.64" y="57">k</tspan><tspan x="157.57" y="57">i</tspan><tspan x="0" y="76">▪</tspan><tspan class="cls-12" x="6.42" y="76">	</tspan><tspan class="cls-15" x="15" y="76">R</tspan><tspan class="cls-20" x="21.81" y="76">e</tspan><tspan x="27.88" y="76">t</tspan><tspan class="cls-9" x="32.57" y="76">r</tspan><tspan x="37.67" y="76">i</tspan><tspan class="cls-21" x="40.51" y="76">e</tspan><tspan class="cls-11" x="46.53" y="76">v</tspan><tspan x="52.13" y="76">es t</tspan><tspan class="cls-15" x="71.47" y="76">r</tspan><tspan class="cls-10" x="76.25" y="76">a</tspan><tspan class="cls-23" x="82.23" y="76">c</tspan><tspan x="88.19" y="76">e d</tspan><tspan class="cls-10" x="103.91" y="76">a</tspan><tspan class="cls-11" x="109.9" y="76">t</tspan><tspan x="114.39" y="76">a f</tspan><tspan class="cls-19" x="127.43" y="76">r</tspan><tspan x="132.23" y="76">om </tspan><tspan class="cls-24" x="151.14" y="76">T</tspan><tspan x="156.93" y="76">empo</tspan><tspan x="0" y="95">▪</tspan><tspan class="cls-12" x="6.42" y="95">	</tspan><tspan x="15" y="95">P</tspan><tspan class="cls-19" x="21.78" y="95">r</tspan><tspan class="cls-11" x="26.57" y="95">o</tspan><tspan x="32.81" y="95">vides d</tspan><tspan class="cls-10" x="69.55" y="95">a</tspan><tspan class="cls-16" x="75.53" y="95">t</tspan><tspan x="80.02" y="95">a </tspan><tspan class="cls-25" x="88.95" y="95">t</tspan><tspan x="93.33" y="95">o G</tspan><tspan class="cls-15" x="110.74" y="95">r</tspan><tspan class="cls-20" x="115.52" y="95">a</tspan><tspan class="cls-19" x="121.52" y="95">f</tspan><tspan x="125.31" y="95">ana</tspan></tspan></text><text class="cls-2" transform="translate(18 308.31)">G<tspan class="cls-26" x="9.65" y="0">r</tspan><tspan class="cls-4" x="15.29" y="0">a</tspan><tspan class="cls-3" x="22.39" y="0">f</tspan><tspan x="26.86" y="0">ana</tspan><tspan class="cls-6"><tspan class="cls-9" x="0" y="19">D</tspan><tspan class="cls-10" x="7.86" y="19">a</tspan><tspan class="cls-11" x="13.85" y="19">t</tspan><tspan x="18.34" y="19">a vi</tspan><tspan class="cls-27" x="35.9" y="19">s</tspan><tspan x="41.48" y="19">u</tspan><tspan class="cls-9" x="47.64" y="19">a</tspan><tspan x="53.74" y="19">li</tspan><tspan class="cls-28" x="59.97" y="19">z</tspan><tspan x="65.63" y="19">er</tspan><tspan x="0" y="38">▪</tspan><tspan class="cls-12" x="6.42" y="38">	</tspan><tspan class="cls-15" x="15" y="38">R</tspan><tspan class="cls-20" x="21.81" y="38">e</tspan><tspan class="cls-10" x="27.88" y="38">a</tspan><tspan x="33.87" y="38">ds </tspan><tspan class="cls-13" x="49.07" y="38">l</tspan><tspan class="cls-22" x="52.28" y="38">o</tspan><tspan class="cls-29" x="58.43" y="38">g</tspan><tspan x="64.77" y="38">, m</tspan><tspan class="cls-18" x="80.42" y="38">e</tspan><tspan x="86.49" y="38">t</tspan><tspan class="cls-9" x="91.17" y="38">r</tspan><tspan x="96.28" y="38">ic and t</tspan><tspan class="cls-30" x="134.77" y="38">r</tspan><tspan class="cls-31" x="139.54" y="38">a</tspan><tspan class="cls-7" x="145.53" y="38">c</tspan><tspan x="151.49" y="38">e d</tspan><tspan class="cls-10" x="167.21" y="38">a</tspan><tspan class="cls-11" x="173.19" y="38">t</tspan><tspan x="177.68" y="38">a f</tspan><tspan class="cls-19" x="190.73" y="38">r</tspan><tspan x="195.52" y="38">om </tspan><tspan x="15" y="52">P</tspan><tspan class="cls-19" x="21.78" y="52">r</tspan><tspan x="26.57" y="52">om</tspan><tspan class="cls-20" x="42.66" y="52">e</tspan><tspan x="48.74" y="52">th</tspan><tspan class="cls-9" x="59.75" y="52">e</tspan><tspan x="65.91" y="52">us</tspan><tspan x="0" y="71">▪</tspan><tspan class="cls-12" x="6.42" y="71">	</tspan><tspan x="15" y="71">P</tspan><tspan class="cls-19" x="21.78" y="71">r</tspan><tspan class="cls-11" x="26.57" y="71">o</tspan><tspan x="32.81" y="71">vides p</tspan><tspan class="cls-20" x="69.59" y="71">ow</tspan><tspan x="85.04" y="71">e</tspan><tspan class="cls-23" x="91.22" y="71">rf</tspan><tspan x="100.02" y="71">ul </tspan><tspan class="cls-32" x="112.39" y="71">t</tspan><tspan x="116.77" y="71">o</tspan><tspan class="cls-9" x="123.21" y="71">ol</tspan><tspan x="133" y="71">s </tspan><tspan class="cls-19" x="141.48" y="71">f</tspan><tspan x="145.26" y="71">or d</tspan><tspan class="cls-10" x="166.36" y="71">a</tspan><tspan class="cls-11" x="172.34" y="71">t</tspan><tspan x="176.83" y="71">a vi</tspan><tspan class="cls-27" x="194.4" y="71">s</tspan><tspan x="199.98" y="71">u</tspan><tspan class="cls-9" x="206.14" y="71">a</tspan><tspan x="212.23" y="71">li</tspan><tspan class="cls-33" x="218.47" y="71">z</tspan><tspan class="cls-10" x="224.12" y="71">a</tspan><tspan x="230.1" y="71">tion</tspan></tspan></text><text class="cls-2" transform="translate(18 461.31)"><tspan class="cls-26">L</tspan><tspan x="6.84" y="0">o</tspan><tspan class="cls-4" x="14.44" y="0">k</tspan><tspan x="21.45" y="0">i</tspan><tspan class="cls-6"><tspan class="cls-15" x="0" y="19">L</tspan><tspan class="cls-34" x="5.79" y="19">o</tspan><tspan x="11.94" y="19">g </tspan><tspan class="cls-20" x="21.26" y="19">a</tspan><tspan class="cls-35" x="27.27" y="19">g</tspan><tspan x="33.8" y="19">g</tspan><tspan class="cls-19" x="40.31" y="19">r</tspan><tspan class="cls-27" x="45.11" y="19">e</tspan><tspan class="cls-36" x="51.21" y="19">g</tspan><tspan class="cls-10" x="57.3" y="19">a</tspan><tspan class="cls-32" x="63.28" y="19">t</tspan><tspan x="67.66" y="19">or</tspan><tspan x="0" y="38">▪</tspan><tspan class="cls-12" x="6.42" y="38">	</tspan><tspan class="cls-19" x="15" y="38">A</tspan><tspan x="22.24" y="38">ct </tspan><tspan class="cls-9" x="35.92" y="38">a</tspan><tspan x="42.02" y="38">s a d</tspan><tspan class="cls-10" x="66.15" y="38">a</tspan><tspan class="cls-11" x="72.13" y="38">t</tspan><tspan x="76.62" y="38">a </tspan><tspan class="cls-8" x="85.55" y="38">s</tspan><tspan x="91.16" y="38">ou</tspan><tspan class="cls-19" x="103.76" y="38">r</tspan><tspan class="cls-7" x="108.56" y="38">c</tspan><tspan x="114.52" y="38">e </tspan><tspan class="cls-19" x="123.52" y="38">f</tspan><tspan x="127.3" y="38">or P</tspan><tspan class="cls-37" x="148.45" y="38">r</tspan><tspan x="153.25" y="38">om</tspan><tspan class="cls-18" x="169.34" y="38">e</tspan><tspan x="175.41" y="38">th</tspan><tspan class="cls-9" x="186.42" y="38">e</tspan><tspan x="192.58" y="38">us</tspan><tspan x="0" y="57">▪</tspan><tspan class="cls-12" x="6.42" y="57">	</tspan><tspan class="cls-19" x="15" y="57">A</tspan><tspan class="cls-7" x="22.24" y="57">cc</tspan><tspan x="34.16" y="57">e</tspan><tspan class="cls-18" x="40.34" y="57">p</tspan><tspan class="cls-11" x="47" y="57">t</tspan><tspan x="51.49" y="57">s </tspan><tspan class="cls-13" x="59.97" y="57">l</tspan><tspan class="cls-34" x="63.18" y="57">o</tspan><tspan x="69.33" y="57">g d</tspan><tspan class="cls-10" x="85.38" y="57">a</tspan><tspan class="cls-16" x="91.36" y="57">t</tspan><tspan x="95.85" y="57">a f</tspan><tspan class="cls-37" x="108.9" y="57">r</tspan><tspan class="cls-38" x="113.69" y="57">om P</tspan><tspan class="cls-19" x="139.38" y="57">r</tspan><tspan x="144.17" y="57">o</tspan><tspan class="cls-9" x="150.61" y="57">m</tspan><tspan class="cls-16" x="160.24" y="57">t</tspan><tspan x="164.73" y="57">ail</tspan></tspan></text><text class="cls-2" transform="translate(18 560.31)">P<tspan class="cls-3" x="8.01" y="0">r</tspan><tspan x="13.68" y="0">o</tspan><tspan class="cls-5" x="21.28" y="0">m</tspan><tspan class="cls-39" x="32.67" y="0">t</tspan><tspan x="37.97" y="0">ail</tspan><tspan class="cls-6"><tspan class="cls-15" x="0" y="19">L</tspan><tspan class="cls-34" x="5.79" y="19">o</tspan><tspan x="11.94" y="19">g </tspan><tspan class="cls-8" x="21.26" y="19">s</tspan><tspan x="26.87" y="19">c</tspan><tspan class="cls-15" x="33.06" y="19">r</tspan><tspan x="37.83" y="19">aper</tspan><tspan x="0" y="38">▪</tspan><tspan class="cls-12" x="6.42" y="38">	</tspan><tspan class="cls-14" x="15" y="38">S</tspan><tspan x="22.24" y="38">c</tspan><tspan class="cls-15" x="28.42" y="38">r</tspan><tspan x="33.19" y="38">apes and </tspan><tspan class="cls-9" x="82.71" y="38">l</tspan><tspan x="86.08" y="38">abe</tspan><tspan class="cls-9" x="105.16" y="38">l</tspan><tspan x="108.53" y="38">s </tspan><tspan class="cls-13" x="117.01" y="38">l</tspan><tspan class="cls-22" x="120.23" y="38">o</tspan><tspan x="126.38" y="38">g d</tspan><tspan class="cls-10" x="142.42" y="38">a</tspan><tspan class="cls-11" x="148.41" y="38">t</tspan><tspan x="152.9" y="38">a f</tspan><tspan class="cls-19" x="165.94" y="38">r</tspan><tspan x="170.74" y="38">om pods</tspan><tspan x="0" y="57">▪</tspan><tspan class="cls-12" x="6.42" y="57">	</tspan><tspan class="cls-27" x="15" y="57">P</tspan><tspan x="21.69" y="57">ushes </tspan><tspan class="cls-13" x="54.5" y="57">l</tspan><tspan class="cls-34" x="57.71" y="57">o</tspan><tspan x="63.86" y="57">g d</tspan><tspan class="cls-31" x="79.91" y="57">a</tspan><tspan class="cls-11" x="85.9" y="57">t</tspan><tspan x="90.38" y="57">a </tspan><tspan class="cls-32" x="99.32" y="57">t</tspan><tspan x="103.69" y="57">o </tspan><tspan class="cls-15" x="112.94" y="57">L</tspan><tspan x="118.73" y="57">o</tspan><tspan class="cls-20" x="125.17" y="57">k</tspan><tspan x="131.09" y="57">i</tspan></tspan></text><text class="cls-2" transform="translate(18 704.73)"><tspan class="cls-40">T</tspan><tspan x="6.85" y="0">empo</tspan><tspan class="cls-6"><tspan class="cls-41" x="0" y="19">T</tspan><tspan class="cls-15" x="5.88" y="19">r</tspan><tspan class="cls-10" x="10.66" y="19">a</tspan><tspan x="16.64" y="19">cing b</tspan><tspan class="cls-10" x="48.08" y="19">a</tspan><tspan x="54.06" y="19">c</tspan><tspan class="cls-42" x="60.25" y="19">k</tspan><tspan x="65.85" y="19">end</tspan><tspan x="0" y="38">▪</tspan><tspan class="cls-12" x="6.42" y="38">	</tspan><tspan class="cls-19" x="15" y="38">A</tspan><tspan x="22.24" y="38">c</tspan><tspan class="cls-11" x="28.42" y="38">t</tspan><tspan x="32.91" y="38">s </tspan><tspan class="cls-9" x="41.39" y="38">a</tspan><tspan x="47.48" y="38">s a d</tspan><tspan class="cls-10" x="71.62" y="38">a</tspan><tspan class="cls-16" x="77.6" y="38">t</tspan><tspan x="82.09" y="38">a </tspan><tspan class="cls-14" x="91.02" y="38">s</tspan><tspan x="96.63" y="38">ou</tspan><tspan class="cls-19" x="109.23" y="38">r</tspan><tspan class="cls-7" x="114.02" y="38">c</tspan><tspan x="119.99" y="38">e </tspan><tspan class="cls-19" x="128.98" y="38">f</tspan><tspan x="132.77" y="38">or P</tspan><tspan class="cls-19" x="153.92" y="38">r</tspan><tspan x="158.72" y="38">om</tspan><tspan class="cls-20" x="174.81" y="38">e</tspan><tspan x="180.88" y="38">th</tspan><tspan class="cls-9" x="191.89" y="38">e</tspan><tspan x="198.05" y="38">us</tspan><tspan x="0" y="57">▪</tspan><tspan class="cls-12" x="6.42" y="57">	</tspan><tspan class="cls-28" x="15" y="57">S</tspan><tspan x="22.05" y="57">uppo</tspan><tspan class="cls-18" x="48.18" y="57">r</tspan><tspan class="cls-11" x="53.19" y="57">t</tspan><tspan x="57.68" y="57">s Open </tspan><tspan class="cls-24" x="96.48" y="57">T</tspan><tspan x="102.27" y="57">e</tspan><tspan class="cls-13" x="108.46" y="57">l</tspan><tspan x="111.67" y="57">em</tspan><tspan class="cls-20" x="127.51" y="57">e</tspan><tspan x="133.58" y="57">t</tspan><tspan class="cls-43" x="138.27" y="57">r</tspan><tspan x="143.12" y="57">y , J</tspan><tspan class="cls-10" x="163.09" y="57">a</tspan><tspan class="cls-27" x="169.08" y="57">e</tspan><tspan class="cls-36" x="175.17" y="57">g</tspan><tspan x="181.26" y="57">e</tspan><tspan class="cls-44" x="187.45" y="57">r</tspan><tspan x="190.96" y="57">, Zip</tspan><tspan class="cls-18" x="213.67" y="57">k</tspan><tspan x="219.6" y="57">in</tspan></tspan></text><text class="cls-45" transform="translate(105.56 45)">Moni<tspan class="cls-46" x="33.82" y="0">t</tspan><tspan x="39.79" y="0">o</tspan><tspan class="cls-47" x="48.57" y="0">r</tspan><tspan x="55.53" y="0">ing</tspan></text><path class="cls-48" d="M157.44,273.8a11.09,11.09,0,0,0-.29-1.67,9.63,9.63,0,0,0-.76-2A11.75,11.75,0,0,0,155,268c-.24-.28-.5-.55-.77-.81a4.19,4.19,0,0,0-.5-3,4.53,4.53,0,0,0-3,.75l-.18-.08c-.27-.11-.54-.21-.83-.3l-.88-.24c-.29-.07-.59-.12-.9-.17l-.16,0a5.47,5.47,0,0,0-2.66-3.08,5.74,5.74,0,0,0-2.61,3.32l0,.11-.36.1a4.24,4.24,0,0,0-.5.18,5.21,5.21,0,0,0-.5.2q-.5.21-1,.48c-.31.17-.62.36-.92.56l-.08,0a7.68,7.68,0,0,0-5.75.23,8.16,8.16,0,0,0,1.51,5.6c-.08.2-.14.4-.2.6a13.88,13.88,0,0,0-.51,2.25c0,.11,0,.22,0,.33a7.46,7.46,0,0,0-3.65,4.2,8.07,8.07,0,0,0,5.09,2.85h0a12.32,12.32,0,0,0,1.2,1.75c.2.23.39.45.6.66a6.21,6.21,0,0,0,.12,4.45,7.42,7.42,0,0,0,4.7-1.42,7.15,7.15,0,0,0,.79.23,11.42,11.42,0,0,0,2.45.36c.21,0,.42,0,.62,0h.42a5.29,5.29,0,0,0,3.4,2,5.34,5.34,0,0,0,1.63-3.55v-.18a8.87,8.87,0,0,0,.9-.72A9.56,9.56,0,0,0,154,283.7l.12-.19a4.32,4.32,0,0,0,2.94-1.07,4.53,4.53,0,0,0-1.52-2.83h0v0h0l0,0c0-.11,0-.22,0-.33a5.62,5.62,0,0,0,0-.58V278c0-.06,0-.11,0-.16s0-.1,0-.15l0-.15,0-.15c0-.2-.06-.4-.11-.6a8,8,0,0,0-.88-2.18,7.31,7.31,0,0,0-1.47-1.75,7.52,7.52,0,0,0-1.85-1.2,7.33,7.33,0,0,0-2-.58,7.11,7.11,0,0,0-1,0h-.52a4.34,4.34,0,0,0-.52.08,5.44,5.44,0,0,0-1.91.72,5.76,5.76,0,0,0-1.47,1.25,5.86,5.86,0,0,0-.93,1.57,6.11,6.11,0,0,0-.37,1.69v.7c0,.06,0,.13,0,.2a4.09,4.09,0,0,0,.15.79,4.32,4.32,0,0,0,.67,1.36,4.18,4.18,0,0,0,2.17,1.52,4,4,0,0,0,1.15.17H147l.13,0a.21.21,0,0,0,.12,0,1.82,1.82,0,0,0,.25-.07,2.92,2.92,0,0,0,.44-.19,3.81,3.81,0,0,0,.4-.23l.1-.08a.3.3,0,0,0,0-.42.28.28,0,0,0-.36-.07l-.1.05a2.33,2.33,0,0,1-.33.14l-.37.1-.2,0H147l-.12.1h-.23a3.23,3.23,0,0,1-1.7-.8,3,3,0,0,1-.64-.8,3.22,3.22,0,0,1-.35-1,3.32,3.32,0,0,1,0-.54c0-.05,0-.1,0-.15h0v0s0-.05,0-.08a1.55,1.55,0,0,1,0-.29,3.8,3.8,0,0,1,1.12-2.11,4.52,4.52,0,0,1,.49-.4,2.69,2.69,0,0,1,.55-.31,3.07,3.07,0,0,1,.6-.22,4.13,4.13,0,0,1,.63-.12h.71a3.28,3.28,0,0,1,.69.1,5.11,5.11,0,0,1,1.3.49,4.87,4.87,0,0,1,2,2,4.42,4.42,0,0,1,.44,1.36,2.33,2.33,0,0,1,0,.37v.52c0,.06,0,.15,0,.21s0,.26,0,.39,0,.26-.06.39l-.09.38q-.1.38-.24.75a6.55,6.55,0,0,1-.76,1.37,6.19,6.19,0,0,1-2.43,2,5.8,5.8,0,0,1-1.52.46,4.15,4.15,0,0,1-.79.08h-.4a3.17,3.17,0,0,1-.43,0,8.5,8.5,0,0,1-1.66-.3,8.14,8.14,0,0,1-4.14-2.76,8.39,8.39,0,0,1-.91-1.4,8.47,8.47,0,0,1-.87-3.16v-.59h0v-.25a4.51,4.51,0,0,1,0-.82,8,8,0,0,1,.14-.83c.05-.27.12-.54.2-.82a9.86,9.86,0,0,1,.57-1.55,8.84,8.84,0,0,1,1.76-2.55c.18-.18.37-.34.56-.5a6.51,6.51,0,0,1,.6-.43,5.07,5.07,0,0,1,.64-.37l.32-.16.17-.07.17-.08.7-.25.18-.05.17-.05.37-.09.18,0,.18,0,.19,0,.09,0h.09l.19,0,.21,0,.21,0,.12,0h.09l0,0h.05a.38.38,0,0,0,.21,0l.1.09h1a9,9,0,0,1,1.38.15,9.86,9.86,0,0,1,4.54,2.14l.11.1.11.09.21.19.2.2a1.84,1.84,0,0,1,.19.2,10.16,10.16,0,0,1,.7.79,10,10,0,0,1,1,1.59l0,.1.05.1a1.11,1.11,0,0,1,.09.19l.09.18a1.54,1.54,0,0,0,.08.19c.1.23.19.47.27.68s.21.67.28.94a.21.21,0,0,0,.24.16.21.21,0,0,0,.21-.22A7.51,7.51,0,0,0,157.44,273.8Z"/><polygon class="cls-49" points="136.56 414.08 136.55 414 136.47 414.02 136.56 414.08"/><polygon class="cls-50" points="138.37 440.44 136.24 440.86 136.67 443 138.8 442.57 138.37 440.44"/><polygon class="cls-51" points="146.01 437.65 155.42 435.76 155 433.64 145.59 435.52 146.01 437.65"/><polygon class="cls-52" points="142.24 436.19 142.67 438.32 144.81 437.89 144.38 435.76 142.24 436.19"/><polygon class="cls-53" points="142.14 441.9 141.71 439.77 139.57 440.2 140 442.33 142.14 441.9"/><polygon class="cls-54" points="136 439.66 138.13 439.23 137.7 437.1 135.57 437.53 136 439.66"/><polygon class="cls-55" points="155.66 436.97 146.25 438.86 146.68 440.99 156.09 439.11 155.66 436.97"/><polygon class="cls-56" points="142.92 439.52 143.34 441.66 145.47 441.23 145.04 439.1 142.92 439.52"/><polygon class="cls-57" points="139.34 438.99 141.47 438.56 141.04 436.43 138.91 436.86 139.34 438.99"/><polygon class="cls-58" points="135.33 436.32 136.23 436.14 132.81 419.08 131.91 419.26 135.33 436.32"/><polygon class="cls-59" points="136.56 436.08 137.47 435.9 133.8 417.58 132.9 417.76 136.56 436.08"/><polygon class="cls-60" points="138.68 435.65 139.58 435.47 135.39 414.55 134.49 414.73 138.68 435.65"/><polygon class="cls-61" points="139.92 435.4 140.82 435.22 136.97 416.01 136.07 416.19 139.92 435.4"/><polygon class="cls-62" points="142.01 434.99 142.91 434.81 139.75 419.07 138.85 419.25 142.01 434.99"/><polygon class="cls-63" points="143.24 434.74 144.14 434.56 140.88 418.23 139.97 418.41 143.24 434.74"/><path class="cls-64" d="M127.46,664.34h-.72a.71.71,0,0,0-.66.42.74.74,0,0,0,.67,1h.71a.71.71,0,0,0,.66-.41.74.74,0,0,0-.66-1.06Zm12.86,10.1h-.72a.7.7,0,0,0-.65.4.74.74,0,0,0,.66,1.07h.73a.72.72,0,0,0,.65-.41.74.74,0,0,0-.67-1.06Zm-.48-6.61a.73.73,0,0,0-.73-.73h-2.46a.71.71,0,0,0-.66.41.74.74,0,0,0,.67,1.06h2.45a.74.74,0,0,0,.73-.74Zm22.1-4.29-.71-4a2.93,2.93,0,0,0-3-2.54H130.73a1.87,1.87,0,0,0-1.93,1.79,2,2,0,0,0,0,.49l.75,4.26,0,.1h0a.65.65,0,0,1-.42.81h0a.7.7,0,0,0-.42.9.69.69,0,0,0,.66.46h30.62A1.86,1.86,0,0,0,162,664,2,2,0,0,0,161.94,663.54Zm-9.4,15.77c-.29-1.55-1.17-2.12-2.17-2.12h-7.2a.7.7,0,0,0-.7.71.69.69,0,0,0,.63.69h0c.23,0,.48.35.63,1.09l.74,4.11a2.82,2.82,0,0,0,2.7,2.21l4.3,0a1.85,1.85,0,0,0,1.93-1.75,2.7,2.7,0,0,0,0-.49Zm-9.52-3.4h7.82l.17,0c.72-.15.76-.74.66-1.33l-1-5.47a2.11,2.11,0,0,0-2.19-2h-7.14a.68.68,0,0,0-.09,1.36h0c.24,0,.49.35.64,1.15l.74,4.1h0a.55.55,0,0,1-.39.68h0a.68.68,0,0,0,.23,1.32H143Z"/><path id="path4486" class="cls-65" d="M144,81a14.5,14.5,0,1,0,14.5,14.5A14.5,14.5,0,0,0,144,81Zm0,27.14c-2.28,0-4.13-1.52-4.13-3.4h8.26C148.13,106.62,146.28,108.14,144,108.14Zm6.81-4.53H137.19v-2.47h13.62v2.47Zm0-3.74H137.22c0-.05-.09-.1-.13-.16a9.69,9.69,0,0,1-2-3.48s1.69.35,2.89.62c0,0,.62.15,1.53.31a5.65,5.65,0,0,1-1.39-3.64c0-2.9,2.23-5.44,1.43-7.5.78.07,1.62,1.65,1.67,4.14a8.9,8.9,0,0,0,1.18-4.54c0-1.33.88-2.88,1.76-2.93-.78,1.29.2,2.39,1.08,5.14.33,1,.29,2.77.54,3.87.08-2.29.48-5.62,1.93-6.78-.64,1.45.09,3.27.59,4.14a7.77,7.77,0,0,1,1.31,4.49,5.61,5.61,0,0,1-1.34,3.62c1-.18,1.61-.34,1.61-.34l3.11-.61A8.83,8.83,0,0,1,150.77,99.87Z"/></g></g></svg>