<svg xmlns="http://www.w3.org/2000/svg" xmlns:xlink="http://www.w3.org/1999/xlink" viewBox="0 0 288 801"><defs><style>.cls-1{fill:url(#radial-gradient);}.cls-2{fill:#f6921e;}.cls-3{fill:url(#radial-gradient-2);}.cls-4{fill:#fff;}.cls-5{font-size:13px;fill:#333;}.cls-5,.cls-61{font-family:OsloSans-Regular, Oslo Sans;}.cls-6{letter-spacing:-0.03em;}.cls-7{letter-spacing:-0.02em;}.cls-8{letter-spacing:-0.03em;}.cls-9{letter-spacing:-0.01em;}.cls-10{letter-spacing:0em;}.cls-11{letter-spacing:-0.02em;}.cls-12{letter-spacing:0em;}.cls-13{letter-spacing:-0.02em;}.cls-14{font-size:11px;}.cls-15{letter-spacing:-0.03em;}.cls-16{letter-spacing:-0.02em;}.cls-17{letter-spacing:0em;}.cls-18{letter-spacing:-0.02em;}.cls-19{letter-spacing:0.52em;}.cls-20{letter-spacing:-0.02em;}.cls-21{letter-spacing:-0.01em;}.cls-22{letter-spacing:-0.02em;}.cls-23{letter-spacing:0em;}.cls-24{letter-spacing:-0.03em;}.cls-25{letter-spacing:0em;}.cls-26{letter-spacing:0em;}.cls-27{letter-spacing:-0.03em;}.cls-28{letter-spacing:-0.02em;}.cls-29{letter-spacing:-0.02em;}.cls-30{letter-spacing:-0.01em;}.cls-31{letter-spacing:-0.03em;}.cls-32{letter-spacing:-0.01em;}.cls-33{letter-spacing:-0.03em;}.cls-34{letter-spacing:0em;}.cls-35{letter-spacing:-0.01em;}.cls-36{letter-spacing:-0.03em;}.cls-37{letter-spacing:-0.01em;}.cls-38{letter-spacing:-0.01em;}.cls-39{letter-spacing:-0.02em;}.cls-40{letter-spacing:-0.03em;}.cls-41{letter-spacing:-0.02em;}.cls-42{letter-spacing:-0.03em;}.cls-43{letter-spacing:-0.02em;}.cls-44{letter-spacing:-0.02em;}.cls-45{letter-spacing:-0.02em;}.cls-46{letter-spacing:-0.01em;}.cls-47{letter-spacing:0em;}.cls-48{letter-spacing:-0.03em;}.cls-49{letter-spacing:0em;}.cls-50{letter-spacing:-0.02em;}.cls-51{letter-spacing:-0.02em;}.cls-52{letter-spacing:-0.02em;}.cls-53{letter-spacing:-0.06em;}.cls-54{letter-spacing:0em;}.cls-55{letter-spacing:-0.03em;}.cls-56{letter-spacing:-0.03em;}.cls-57{letter-spacing:-0.03em;}.cls-58{letter-spacing:-0.01em;}.cls-59{letter-spacing:-0.04em;}.cls-60{letter-spacing:-0.15em;}.cls-61{font-size:15px;fill:#737373;}.cls-62{letter-spacing:-0.06em;}.cls-63{letter-spacing:-0.04em;}.cls-64{letter-spacing:-0.03em;}.cls-65{letter-spacing:-0.01em;}.cls-66{fill:#9d5025;}.cls-67{fill:#f68536;}.cls-68{fill:#6b3a19;}.cls-69{fill:#e53c3c;}.cls-70{fill:url(#linear-gradient);}.cls-71{fill:url(#linear-gradient-2);}.cls-72{fill:url(#linear-gradient-3);}.cls-73{fill:url(#linear-gradient-4);}.cls-74{fill:url(#linear-gradient-5);}.cls-75{fill:#f58536;}</style><radialGradient id="radial-gradient" cx="7266.39" cy="8747.74" r="0.96" gradientTransform="translate(-1148940.15 -1298709.69) scale(158.14 148.48)" gradientUnits="userSpaceOnUse"><stop offset="0" stop-color="#fff000"/><stop offset="1" stop-color="#f5911e"/></radialGradient><radialGradient id="radial-gradient-2" cx="7016.12" cy="8458.22" r="5.97" gradientTransform="translate(-173417.88 -209101.43) scale(24.74)" xlink:href="#radial-gradient"/><linearGradient id="linear-gradient" x1="151.74" y1="641.26" x2="170.31" y2="622.69" gradientTransform="matrix(1, 0, 0, -1, -12.49, 847.43)" gradientUnits="userSpaceOnUse"><stop offset="0" stop-color="#c8511b"/><stop offset="1" stop-color="#f90"/></linearGradient><linearGradient id="linear-gradient-2" x1="141.16" y1="630.7" x2="159.73" y2="612.13" xlink:href="#linear-gradient"/><linearGradient id="linear-gradient-3" x1="140.92" y1="630.56" x2="159.54" y2="611.94" xlink:href="#linear-gradient"/><linearGradient id="linear-gradient-4" x1="151.93" y1="641.45" x2="170.55" y2="622.84" xlink:href="#linear-gradient"/><linearGradient id="linear-gradient-5" x1="146.42" y1="636.03" x2="165.06" y2="617.39" xlink:href="#linear-gradient"/><symbol id="E" data-name="E" viewBox="0 0 159.59 148.48"><path id="C" class="cls-1" d="M147.22,36.36A23.5,23.5,0,0,0,136.55,39,30.11,30.11,0,0,0,112.48,20.9l-3.58-.18A30.08,30.08,0,0,0,79.07,47.28l-.24,1.25A39.93,39.93,0,0,1,64.89,72.11a37.25,37.25,0,0,1,7.4-.67c8.06,0,16.43,2.3,24.92,6.85l.18.13c.12.06.24.18.36.18a28,28,0,0,0,6.73,2.6c.18,0,.36.06.6.06a33.41,33.41,0,0,0,3.46.18,30.27,30.27,0,0,0,20.32-8,23,23,0,0,0,18.43,9.16c.42,0,.8-.05,1.22-.05a49.52,49.52,0,0,1-10,9.45,43.65,43.65,0,0,1-27.95,10,46.17,46.17,0,0,1-23-6.13c-3.76-2-9.34-4.37-15.1-4.37a16.77,16.77,0,0,0-13.34,6.13,19,19,0,0,0-4.73,12.24,18.87,18.87,0,0,0,19,17.95,18.78,18.78,0,0,0,13.54-5.64,21,21,0,0,0,3.4-4.6A10.36,10.36,0,0,1,99.43,112a11,11,0,0,1,4.79,1.15,10.32,10.32,0,0,1,4.37,13.95,39,39,0,0,1-7,9.58,39.77,39.77,0,0,1-53.85,2.43,3.53,3.53,0,0,1-.55-.37,12.2,12.2,0,0,1-.91-.85l-.36-.36c-.06-.06-.13-.12-.18-.12a3.49,3.49,0,0,1-.43-.43,1.31,1.31,0,0,1-.24-.3,23.65,23.65,0,0,1-2.06-2.3l-.13-.12c-.12-.12-.24-.3-.36-.42a36.07,36.07,0,0,1-8.43-21.77,39.1,39.1,0,0,1,9.76-27.67,37,37,0,0,1,4.37-4.31,39.23,39.23,0,0,1-13.1.6A39.78,39.78,0,0,1,39.63,1.44a41.57,41.57,0,0,1,4.73.3A39.14,39.14,0,0,1,55.82,4.9,10.3,10.3,0,0,1,61,18.55a10.41,10.41,0,0,1-9.46,6.12,9.94,9.94,0,0,1-4.19-.91,19.21,19.21,0,0,0-5.51-1.52q-1.16-.1-2.31-.12A19.17,19.17,0,0,0,20.59,39a18.77,18.77,0,0,0,4,14.06A19,19,0,0,0,37.33,60.2c.74.07,1.49.1,2.24.12a19.12,19.12,0,0,0,19-16.79c.06-.42.12-.8.18-1.15A50.74,50.74,0,0,1,108.75,0a50.19,50.19,0,0,1,6,.36,50.79,50.79,0,0,1,43.39,38.87,22.06,22.06,0,0,0-11-2.85Z"/><path id="C-2" data-name="C" class="cls-2" d="M147.22,36.36A23.5,23.5,0,0,0,136.55,39,30.11,30.11,0,0,0,112.48,20.9l-3.58-.18A30.08,30.08,0,0,0,79.07,47.28l-.24,1.25A39.93,39.93,0,0,1,64.89,72.11a37.25,37.25,0,0,1,7.4-.67c8.06,0,16.43,2.3,24.92,6.85l.18.13c.12.06.24.18.36.18a28,28,0,0,0,6.73,2.6c.18,0,.36.06.6.06a33.41,33.41,0,0,0,3.46.18,30.27,30.27,0,0,0,20.32-8,23,23,0,0,0,18.43,9.16c.42,0,.8-.05,1.22-.05a49.52,49.52,0,0,1-10,9.45,43.65,43.65,0,0,1-27.95,10,46.17,46.17,0,0,1-23-6.13c-3.76-2-9.34-4.37-15.1-4.37a16.77,16.77,0,0,0-13.34,6.13,19,19,0,0,0-4.73,12.24,18.87,18.87,0,0,0,19,17.95,18.78,18.78,0,0,0,13.54-5.64,21,21,0,0,0,3.4-4.6A10.36,10.36,0,0,1,99.43,112a11,11,0,0,1,4.79,1.15,10.32,10.32,0,0,1,4.37,13.95,39,39,0,0,1-7,9.58,39.77,39.77,0,0,1-53.85,2.43,3.53,3.53,0,0,1-.55-.37,12.2,12.2,0,0,1-.91-.85l-.36-.36c-.06-.06-.13-.12-.18-.12a3.49,3.49,0,0,1-.43-.43,1.31,1.31,0,0,1-.24-.3,23.65,23.65,0,0,1-2.06-2.3l-.13-.12c-.12-.12-.24-.3-.36-.42a36.07,36.07,0,0,1-8.43-21.77,39.1,39.1,0,0,1,9.76-27.67,37,37,0,0,1,4.37-4.31,39.23,39.23,0,0,1-13.1.6A39.78,39.78,0,0,1,39.63,1.44a41.57,41.57,0,0,1,4.73.3A39.14,39.14,0,0,1,55.82,4.9,10.3,10.3,0,0,1,61,18.55a10.41,10.41,0,0,1-9.46,6.12,9.94,9.94,0,0,1-4.19-.91,19.21,19.21,0,0,0-5.51-1.52q-1.16-.1-2.31-.12A19.17,19.17,0,0,0,20.59,39a18.77,18.77,0,0,0,4,14.06A19,19,0,0,0,37.33,60.2c.74.07,1.49.1,2.24.12a19.12,19.12,0,0,0,19-16.79c.06-.42.12-.8.18-1.15A50.74,50.74,0,0,1,108.75,0a50.19,50.19,0,0,1,6,.36,50.79,50.79,0,0,1,43.39,38.87,22.06,22.06,0,0,0-11-2.85Z"/><path id="D" class="cls-3" d="M134.86,59.48a12.37,12.37,0,1,0,12.36-12.37A12.36,12.36,0,0,0,134.86,59.48Z"/><path id="D-2" data-name="D" class="cls-2" d="M134.86,59.48a12.37,12.37,0,1,0,12.36-12.37A12.36,12.36,0,0,0,134.86,59.48Z"/></symbol></defs><g id="Layer_2" data-name="Layer 2"><g id="Kubernetes_Components" data-name="Kubernetes Components"><rect class="cls-4" width="288" height="801"/><text class="cls-5" transform="translate(18 128.31)"><tspan class="cls-6">A</tspan><tspan class="cls-7" x="8.57" y="0">W</tspan><tspan x="21.72" y="0">S </tspan><tspan class="cls-8" x="33.67" y="0">L</tspan><tspan x="40.51" y="0">o</tspan><tspan class="cls-9" x="48.11" y="0">a</tspan><tspan class="cls-10" x="55.19" y="0">d </tspan><tspan class="cls-11" x="66.46" y="0">B</tspan><tspan class="cls-12" x="74.79" y="0">al</tspan><tspan x="85.98" y="0">an</tspan><tspan class="cls-13" x="100.67" y="0">c</tspan><tspan x="107.72" y="0">er</tspan><tspan class="cls-14"><tspan x="0" y="19">Ing</tspan><tspan class="cls-15" x="15.73" y="19">r</tspan><tspan x="20.53" y="19">ess </tspan><tspan class="cls-16" x="40.85" y="19">c</tspan><tspan x="46.82" y="19">o</tspan><tspan class="cls-17" x="53.25" y="19">n</tspan><tspan x="59.54" y="19">t</tspan><tspan class="cls-15" x="64.23" y="19">r</tspan><tspan class="cls-17" x="69.02" y="19">ol</tspan><tspan class="cls-18" x="78.81" y="19">l</tspan><tspan x="82.03" y="19">er</tspan><tspan x="0" y="38">▪</tspan><tspan class="cls-19" x="6.42" y="38">	</tspan><tspan x="15" y="38">P</tspan><tspan class="cls-15" x="21.78" y="38">r</tspan><tspan class="cls-20" x="26.57" y="38">o</tspan><tspan x="32.81" y="38">vides </tspan><tspan class="cls-18" x="62.83" y="38">l</tspan><tspan x="66.04" y="38">o</tspan><tspan class="cls-21" x="72.47" y="38">a</tspan><tspan x="78.46" y="38">d b</tspan><tspan class="cls-17" x="94.77" y="38">al</tspan><tspan x="104.24" y="38">an</tspan><tspan class="cls-22" x="116.67" y="38">c</tspan><tspan x="122.63" y="38">e</tspan><tspan class="cls-16" x="128.82" y="38">r</tspan><tspan x="133.72" y="38">s </tspan><tspan class="cls-15" x="142.2" y="38">f</tspan><tspan x="145.99" y="38">or k8s ing</tspan><tspan class="cls-15" x="197.59" y="38">r</tspan><tspan x="202.38" y="38">es</tspan><tspan class="cls-23" x="214.23" y="38">s</tspan><tspan x="219.84" y="38">es</tspan></tspan></text><text class="cls-5" transform="translate(18 254.31)"><tspan class="cls-7">A</tspan><tspan x="8.66" y="0">u</tspan><tspan class="cls-24" x="15.94" y="0">t</tspan><tspan class="cls-25" x="21.11" y="0">o</tspan><tspan class="cls-26" x="28.69" y="0">S</tspan><tspan class="cls-27" x="37.25" y="0">c</tspan><tspan class="cls-12" x="44.19" y="0">a</tspan><tspan class="cls-28" x="51.39" y="0">l</tspan><tspan x="55.19" y="0">er</tspan><tspan class="cls-14"><tspan x="0" y="19">Ho</tspan><tspan class="cls-17" x="14.19" y="19">r</tspan><tspan x="19.29" y="19">i</tspan><tspan class="cls-7" x="22.13" y="19">z</tspan><tspan x="27.79" y="19">o</tspan><tspan class="cls-17" x="34.22" y="19">n</tspan><tspan class="cls-29" x="40.51" y="19">t</tspan><tspan class="cls-17" x="45" y="19">a</tspan><tspan x="51.1" y="19">l </tspan><tspan class="cls-17" x="57.31" y="19">c</tspan><tspan class="cls-23" x="63.47" y="19">l</tspan><tspan x="66.81" y="19">u</tspan><tspan class="cls-30" x="72.97" y="19">s</tspan><tspan class="cls-31" x="78.53" y="19">t</tspan><tspan x="82.91" y="19">er </tspan><tspan class="cls-32" x="97.03" y="19">s</tspan><tspan class="cls-33" x="102.64" y="19">c</tspan><tspan class="cls-17" x="108.52" y="19">a</tspan><tspan class="cls-18" x="114.61" y="19">l</tspan><tspan x="117.82" y="19">er</tspan><tspan x="0" y="38">▪</tspan><tspan class="cls-19" x="6.42" y="38">	</tspan><tspan class="cls-15" x="15" y="38">A</tspan><tspan x="22.24" y="38">dds and </tspan><tspan class="cls-15" x="66.13" y="38">r</tspan><tspan x="70.92" y="38">em</tspan><tspan class="cls-20" x="86.76" y="38">ov</tspan><tspan x="98.6" y="38">es </tspan><tspan class="cls-34" x="113.26" y="38">c</tspan><tspan class="cls-32" x="119.42" y="38">l</tspan><tspan x="122.77" y="38">u</tspan><tspan class="cls-35" x="128.93" y="38">s</tspan><tspan class="cls-36" x="134.48" y="38">t</tspan><tspan x="138.86" y="38">er nodes depending </tspan><tspan x="15" y="52">on </tspan><tspan class="cls-18" x="30.56" y="52">l</tspan><tspan x="33.78" y="52">o</tspan><tspan class="cls-21" x="40.21" y="52">a</tspan><tspan x="46.2" y="52">d</tspan></tspan></text><text class="cls-5" transform="translate(18 389.31)">E<tspan class="cls-37" x="7.7" y="0">B</tspan><tspan x="16.13" y="0">S </tspan><tspan class="cls-38" x="28.08" y="0">C</tspan><tspan x="37.23" y="0">SI </tspan><tspan class="cls-39" x="52.61" y="0">C</tspan><tspan x="61.63" y="0">o</tspan><tspan class="cls-25" x="69.24" y="0">n</tspan><tspan x="76.67" y="0">t</tspan><tspan class="cls-40" x="82.21" y="0">r</tspan><tspan class="cls-25" x="87.88" y="0">ol</tspan><tspan class="cls-28" x="99.45" y="0">l</tspan><tspan x="103.24" y="0">er</tspan><tspan class="cls-14"><tspan class="cls-15" x="0" y="19">P</tspan><tspan x="6.45" y="19">e</tspan><tspan class="cls-16" x="12.63" y="19">r</tspan><tspan x="17.53" y="19">si</tspan><tspan class="cls-30" x="26.04" y="19">s</tspan><tspan class="cls-31" x="31.59" y="19">t</tspan><tspan x="35.97" y="19">e</tspan><tspan class="cls-17" x="42.15" y="19">n</tspan><tspan x="48.44" y="19">t </tspan><tspan class="cls-20" x="55.95" y="19">v</tspan><tspan class="cls-17" x="61.55" y="19">o</tspan><tspan class="cls-32" x="67.96" y="19">l</tspan><tspan x="71.3" y="19">ume p</tspan><tspan class="cls-15" x="102.88" y="19">r</tspan><tspan class="cls-41" x="107.68" y="19">o</tspan><tspan x="113.92" y="19">vider</tspan><tspan x="0" y="38">▪</tspan><tspan class="cls-19" x="6.42" y="38">	</tspan><tspan x="15" y="38">C</tspan><tspan class="cls-15" x="22.88" y="38">r</tspan><tspan class="cls-30" x="27.67" y="38">e</tspan><tspan class="cls-21" x="33.74" y="38">a</tspan><tspan class="cls-31" x="39.73" y="38">t</tspan><tspan x="44.11" y="38">es </tspan><tspan class="cls-42" x="58.77" y="38">A</tspan><tspan class="cls-7" x="66.02" y="38">W</tspan><tspan x="77.15" y="38">S </tspan><tspan class="cls-17" x="87.26" y="38">Ela</tspan><tspan class="cls-35" x="103.22" y="38">s</tspan><tspan x="108.77" y="38">tic B</tspan><tspan class="cls-43" x="132.55" y="38">l</tspan><tspan x="135.76" y="38">ock </tspan><tspan class="cls-44" x="157.23" y="38">S</tspan><tspan class="cls-36" x="164.28" y="38">t</tspan><tspan x="168.66" y="38">o</tspan><tspan class="cls-15" x="175.09" y="38">r</tspan><tspan x="179.89" y="38">e upon </tspan><tspan class="cls-15" x="15" y="52">r</tspan><tspan x="19.8" y="52">eque</tspan><tspan class="cls-30" x="45.01" y="52">s</tspan><tspan x="50.56" y="52">t and </tspan><tspan class="cls-16" x="80.03" y="52">c</tspan><tspan x="85.99" y="52">onnec</tspan><tspan class="cls-41" x="117.42" y="52">t</tspan><tspan x="121.91" y="52">s it </tspan><tspan class="cls-36" x="140.73" y="52">t</tspan><tspan x="145.11" y="52">o pods</tspan></tspan></text><text class="cls-5" transform="translate(18 515.31)"><tspan class="cls-45">E</tspan><tspan class="cls-46" x="7.37" y="0">x</tspan><tspan class="cls-27" x="14.16" y="0">t</tspan><tspan x="19.33" y="0">ern</tspan><tspan class="cls-25" x="40.16" y="0">a</tspan><tspan x="47.36" y="0">l DNS</tspan><tspan class="cls-14"><tspan x="0" y="19">Domain </tspan><tspan class="cls-21" x="42.06" y="19">a</tspan><tspan x="48.05" y="19">dmini</tspan><tspan class="cls-30" x="76.42" y="19">s</tspan><tspan class="cls-47" x="81.97" y="19">t</tspan><tspan class="cls-48" x="86.66" y="19">r</tspan><tspan class="cls-21" x="91.43" y="19">a</tspan><tspan x="97.42" y="19">tion </tspan><tspan class="cls-16" x="120.5" y="19">c</tspan><tspan x="126.47" y="19">o</tspan><tspan class="cls-34" x="132.9" y="19">n</tspan><tspan x="139.19" y="19">t</tspan><tspan class="cls-15" x="143.88" y="19">r</tspan><tspan class="cls-49" x="148.67" y="19">ol</tspan><tspan class="cls-50" x="158.46" y="19">l</tspan><tspan x="161.67" y="19">er</tspan><tspan x="0" y="38">▪</tspan><tspan class="cls-19" x="6.42" y="38">	</tspan><tspan class="cls-7" x="15" y="38">C</tspan><tspan x="22.63" y="38">o</tspan><tspan class="cls-17" x="29.07" y="38">n</tspan><tspan x="35.36" y="38">fi</tspan><tspan class="cls-51" x="42.31" y="38">g</tspan><tspan x="48.58" y="38">u</tspan><tspan class="cls-15" x="54.74" y="38">r</tspan><tspan x="59.54" y="38">es </tspan><tspan class="cls-48" x="74.2" y="38">R</tspan><tspan x="81.01" y="38">ou</tspan><tspan class="cls-36" x="93.6" y="38">t</tspan><tspan x="97.98" y="38">e53 e</tspan><tspan class="cls-49" x="127.24" y="38">n</tspan><tspan x="133.53" y="38">t</tspan><tspan class="cls-34" x="138.22" y="38">r</tspan><tspan x="143.32" y="38">ies b</tspan><tspan class="cls-49" x="167.6" y="38">a</tspan><tspan class="cls-23" x="173.69" y="38">s</tspan><tspan x="179.31" y="38">ed on k8s </tspan><tspan x="15" y="52">ing</tspan><tspan class="cls-15" x="30.66" y="52">r</tspan><tspan x="35.46" y="52">es</tspan><tspan class="cls-23" x="47.31" y="52">s</tspan><tspan x="52.92" y="52">es</tspan></tspan></text><text class="cls-5" transform="translate(18 650.31)"><tspan class="cls-45">E</tspan><tspan class="cls-46" x="7.37" y="0">x</tspan><tspan class="cls-27" x="14.16" y="0">t</tspan><tspan x="19.33" y="0">ern</tspan><tspan class="cls-25" x="40.16" y="0">a</tspan><tspan x="47.36" y="0">l </tspan><tspan class="cls-26" x="54.7" y="0">S</tspan><tspan x="63.26" y="0">ec</tspan><tspan class="cls-40" x="77.87" y="0">r</tspan><tspan class="cls-37" x="83.54" y="0">e</tspan><tspan class="cls-52" x="90.71" y="0">t</tspan><tspan x="96.02" y="0">s</tspan><tspan class="cls-14"><tspan class="cls-23" x="0" y="19">S</tspan><tspan x="7.24" y="19">ec</tspan><tspan class="cls-15" x="19.6" y="19">r</tspan><tspan class="cls-30" x="24.4" y="19">e</tspan><tspan class="cls-29" x="30.47" y="19">t</tspan><tspan x="34.96" y="19">s </tspan><tspan class="cls-16" x="43.44" y="19">c</tspan><tspan x="49.4" y="19">o</tspan><tspan class="cls-17" x="55.84" y="19">n</tspan><tspan x="62.13" y="19">t</tspan><tspan class="cls-15" x="66.81" y="19">r</tspan><tspan class="cls-17" x="71.61" y="19">ol</tspan><tspan class="cls-50" x="81.4" y="19">l</tspan><tspan x="84.61" y="19">er</tspan><tspan x="0" y="38">▪</tspan><tspan class="cls-19" x="6.42" y="38">	</tspan><tspan class="cls-53" x="15" y="38">F</tspan><tspan class="cls-30" x="20.6" y="38">e</tspan><tspan class="cls-31" x="26.67" y="38">t</tspan><tspan class="cls-54" x="31.05" y="38">ches </tspan><tspan class="cls-32" x="58.22" y="38">s</tspan><tspan x="63.83" y="38">ec</tspan><tspan class="cls-15" x="76.19" y="38">r</tspan><tspan class="cls-30" x="80.99" y="38">e</tspan><tspan class="cls-29" x="87.06" y="38">t</tspan><tspan x="91.55" y="38">s f</tspan><tspan class="cls-15" x="104.15" y="38">r</tspan><tspan x="108.94" y="38">om </tspan><tspan class="cls-55" x="127.85" y="38">A</tspan><tspan class="cls-44" x="135.1" y="38">W</tspan><tspan x="146.23" y="38">S </tspan><tspan class="cls-15" x="156.34" y="38">P</tspan><tspan x="162.79" y="38">a</tspan><tspan class="cls-56" x="168.9" y="38">r</tspan><tspan x="173.68" y="38">am</tspan><tspan class="cls-35" x="189.45" y="38">e</tspan><tspan class="cls-36" x="195.52" y="38">t</tspan><tspan x="199.9" y="38">er </tspan><tspan class="cls-44" x="214.02" y="38">S</tspan><tspan class="cls-36" x="221.08" y="38">t</tspan><tspan x="225.45" y="38">o</tspan><tspan class="cls-57" x="231.89" y="38">r</tspan><tspan x="236.68" y="38">e </tspan><tspan x="15" y="52">and </tspan><tspan class="cls-23" x="36.97" y="52">S</tspan><tspan x="44.21" y="52">ec</tspan><tspan class="cls-15" x="56.57" y="52">r</tspan><tspan class="cls-30" x="61.37" y="52">e</tspan><tspan class="cls-29" x="67.44" y="52">t</tspan><tspan x="71.93" y="52">s Man</tspan><tspan class="cls-58" x="102.05" y="52">a</tspan><tspan class="cls-59" x="108.06" y="52">g</tspan><tspan x="114.15" y="52">e</tspan><tspan class="cls-60" x="120.34" y="52">r</tspan><tspan x="123.84" y="52">, then injec</tspan><tspan class="cls-41" x="180.48" y="52">t</tspan><tspan x="184.97" y="52">s them i</tspan><tspan class="cls-34" x="225.96" y="52">n</tspan><tspan class="cls-33" x="232.25" y="52">t</tspan><tspan x="236.63" y="52">o </tspan><tspan x="15" y="66">the </tspan><tspan class="cls-17" x="35.01" y="66">c</tspan><tspan class="cls-23" x="41.17" y="66">l</tspan><tspan x="44.51" y="66">u</tspan><tspan class="cls-58" x="50.67" y="66">s</tspan><tspan class="cls-33" x="56.23" y="66">t</tspan><tspan x="60.61" y="66">er</tspan></tspan></text><text class="cls-61" transform="translate(99.42 45)"><tspan class="cls-62">K</tspan><tspan x="9" y="0">ube </tspan><tspan class="cls-63" x="38.91" y="0">s</tspan><tspan class="cls-64" x="46.06" y="0">y</tspan><tspan class="cls-65" x="53.89" y="0">s</tspan><tspan class="cls-64" x="61.47" y="0">t</tspan><tspan x="67.44" y="0">em</tspan></text><use width="159.59" height="148.48" transform="matrix(0.2, 0, 0, -0.2, 128.41, 371)" xlink:href="#E"/><path class="cls-66" d="M138.92,494.46,144,497l.49-.37-.21-28.29L144,468l-5.08,2.54v23.92"/><path class="cls-67" d="M149.07,494.46,144,497V468l5.07,2.54v23.92"/><path class="cls-68" d="M142.08,478.56l-1.78.26-8.31-.94,0-.09,1.34-.41.15.08,0-.08,8.48,1,.05.19"/><path class="cls-66" d="M132,474l1.53-.76v4.22l-1.53.42V474"/><path class="cls-68" d="M156,480.3l-8.51.45-1.59-.11.3-.12,8.29-.48,1.51.26"/><path class="cls-67" d="M142.08,478.56l-8.56-1.1v-4.22l8.56,2v3.31"/><path class="cls-66" d="M154.48,475.71l-8.57,1.48v3.45l8.57-.51.05-.1,0-4.24,0-.08"/><path class="cls-67" d="M156,480.3l-1.53-.2v-4.39l1.53.57v4"/><g id="Reference"><g id="Icon_Test" data-name="Icon Test"><rect class="cls-69" x="153.83" y="623.04" width="1.16" height="9.79" transform="translate(-398.79 293.1) rotate(-45)"/><rect class="cls-69" x="133.34" y="602.01" width="1.16" height="10.85" transform="translate(-390.3 272.61) rotate(-45)"/><rect class="cls-69" x="130.98" y="627.07" width="5.73" height="1.16" transform="translate(-404.61 278.48) rotate(-45)"/><rect class="cls-69" x="151.24" y="606.81" width="5.73" height="1.16" transform="translate(-384.35 286.87) rotate(-45)"/><path class="cls-69" d="M157.27,616.91a13.25,13.25,0,0,0-2.5-7.19l-.93.68a12.23,12.23,0,0,1,2.27,6.68H155v.84h1.09a12.06,12.06,0,0,1-2.27,6.71l.93.67a13.1,13.1,0,0,0,2.5-7.21h1.15v-1.18Z"/><path class="cls-69" d="M136.62,607.52a12.75,12.75,0,0,1,6.7-2.22v1.09h1.19V605.3a12.75,12.75,0,0,1,6.7,2.22l.72-.91a14,14,0,0,0-7.42-2.44V603h-1.19v1.17a14,14,0,0,0-7.42,2.44Z"/><path class="cls-69" d="M151.21,627.52a12.75,12.75,0,0,1-6.7,2.22v-1.13h-1.19v1.13a12.75,12.75,0,0,1-6.7-2.22l-.72.91a14,14,0,0,0,7.42,2.44V632h1.19v-1.13a14,14,0,0,0,7.42-2.44Z"/><path class="cls-69" d="M133.15,625.51l.92-.7a12.62,12.62,0,0,1-2.22-6.72H133v-1.18h-1.13a12.72,12.72,0,0,1,2.22-6.69l-.92-.7a14,14,0,0,0-2.43,7.39h-1.14v1.18h1.14A13.9,13.9,0,0,0,133.15,625.51Z"/><path class="cls-69" d="M146.84,609.84a4.36,4.36,0,0,0-2.84-1h0a3.83,3.83,0,0,0-4.07,3.53v2.84h-1.12a.58.58,0,0,0-.58.58V624a.58.58,0,0,0,.58.58h10.38a.58.58,0,0,0,.58-.58v-8.17a.54.54,0,0,0-.17-.4.55.55,0,0,0-.41-.18h-1.12v-2.84A3.29,3.29,0,0,0,146.84,609.84Zm-5.73,2.53A2.67,2.67,0,0,1,144,610h0a3.21,3.21,0,0,1,2.08.72,2.18,2.18,0,0,1,.81,1.65v2.84h-5.76Zm7.47,5.72h-1.7v1.19h1.7v1h-1.7v1.19h1.7v1.86h-9.33v-7h9.33Z"/><path class="cls-69" d="M143.32,620.57v1.59h1.19v-1.59a1.7,1.7,0,0,0,.74-2.7,1.67,1.67,0,0,0-1.32-.6,1.71,1.71,0,0,0-1.65,2.28A1.77,1.77,0,0,0,143.32,620.57Zm.62-2.25a.63.63,0,1,1-.62.63h0A.62.62,0,0,1,143.94,618.32Z"/></g></g><path class="cls-70" d="M143.42,209v5.5h1.16V209l2.71,2.71.82-.82-3.7-3.71a.57.57,0,0,0-.82,0h0l-3.7,3.71.82.82Z"/><path class="cls-71" d="M144.58,234v-5.57h-1.16V234l-2.71-2.71-.82.83,3.7,3.7a.57.57,0,0,0,.82,0h0l3.7-3.7-.82-.83Z"/><path class="cls-72" d="M133.1,217.38l-.82.83,2.7,2.67h-5.53V222H135l-2.75,2.75.82.82,3.71-3.7a.59.59,0,0,0,0-.82Z"/><path class="cls-73" d="M158.55,220.88h-5.5l2.67-2.67-.83-.83-3.7,3.71a.59.59,0,0,0,0,.82l3.7,3.7.83-.82L153,222h5.58Z"/><path class="cls-74" d="M149,218.33l-4.66-2.62a.6.6,0,0,0-.58,0l-4.66,2.62a.58.58,0,0,0-.29.51v5.23a.58.58,0,0,0,.29.51l4.66,2.61a.54.54,0,0,0,.28.08.57.57,0,0,0,.28-.08l4.65-2.61a.57.57,0,0,0,.3-.51v-5.23A.6.6,0,0,0,149,218.33ZM144,216.9l3.49,2-3.49,2-3.49-2Zm-4.07,3,3.49,2v3.78l-3.49-2Zm4.65,5.82v-3.8l3.49-2v3.84Z"/><path class="cls-75" d="M143.51,110A14.5,14.5,0,1,1,158,95.47,14.49,14.49,0,0,1,143.51,110Zm1.41-7.47.15.05,2.84.68a.17.17,0,0,1,.16.2c0,.26,0,.52,0,.78v.87h4.55v-4.54h-4.55v.87l-1.41-1.8-.59,1-6.43-4.06H145v1l3-1.14V98h4.54V93.44h-4.56V95.1L145,94v1h-5.4L146,90.87l.65.92L148,90.06l0,0v.82h4.54V86.35h-4.55v.21c0,.47,0,1,0,1.43a.19.19,0,0,1-.17.22c-.68.15-1.35.32-2,.48l-1,.24.49.91-8,5.11v-3h-5.06v7.59h4.91c.14,0,.15-.07.15-.18V96.48l7.89,5.1Z"/></g></g></svg>