<svg xmlns="http://www.w3.org/2000/svg" xmlns:xlink="http://www.w3.org/1999/xlink" viewBox="0 0 50 49.842"><defs><style>.a{fill:url(#a);}.b{fill:url(#b);}.c{fill:url(#c);}.d{fill:url(#d);}.e{fill:url(#e);}</style><linearGradient id="a" x1="29.326" y1="11.143" x2="61.237" y2="43.054" gradientUnits="userSpaceOnUse"><stop offset="0" stop-color="#c8511b"/><stop offset="1" stop-color="#f90"/></linearGradient><linearGradient id="b" x1="11.146" y1="29.288" x2="43.057" y2="61.199" xlink:href="#a"/><linearGradient id="c" x1="10.728" y1="29.53" x2="42.739" y2="61.54" xlink:href="#a"/><linearGradient id="d" x1="29.662" y1="10.809" x2="61.651" y2="42.798" xlink:href="#a"/><linearGradient id="e" x1="20.189" y1="20.129" x2="52.224" y2="52.163" xlink:href="#a"/></defs><title>icon-aws-amazon-spot</title><path class="a" d="M36.489,16v9.45h2V16l4.66,4.65,1.41-1.41L38.2,12.87a1,1,0,0,0-1.415-.006l0,.006-6.36,6.37,1.41,1.41Z" transform="translate(-12.489 -12.574)"/><path class="b" d="M38.489,59V49.43h-2V59l-4.66-4.66-1.41,1.42,6.36,6.36a1,1,0,0,0,1.414.006l.006-.006,6.36-6.36-1.41-1.42Z" transform="translate(-12.489 -12.574)"/><path class="c" d="M18.759,30.42l-1.41,1.42,4.64,4.59h-9.5v2h9.59l-4.73,4.72,1.41,1.41,6.37-6.36a1,1,0,0,0,0-1.41Z" transform="translate(-12.489 -12.574)"/><path class="d" d="M62.489,36.43h-9.45l4.59-4.59-1.42-1.42-6.36,6.37a1,1,0,0,0,0,1.41l6.36,6.36,1.42-1.41L52.9,38.43h9.59Z" transform="translate(-12.489 -12.574)"/><path class="e" d="M45.989,32.05l-8-4.5a1,1,0,0,0-1,0l-8,4.5a1,1,0,0,0-.51.87v9a1,1,0,0,0,.51.87l8,4.49a.93.93,0,0,0,.48.13.912.912,0,0,0,.48-.13l8-4.49a1,1,0,0,0,.51-.87v-9A1,1,0,0,0,45.989,32.05Zm-8.5-2.46,6,3.38-6,3.48-6-3.48Zm-7,5.12,6,3.47v6.5l-6-3.37Zm8,10V38.19l6-3.48v6.6Z" transform="translate(-12.489 -12.574)"/></svg>