<svg xmlns="http://www.w3.org/2000/svg" xmlns:xlink="http://www.w3.org/1999/xlink" viewBox="0 0 161 150" fill="#fff" fill-rule="evenodd" stroke="#000" stroke-linecap="round" stroke-linejoin="round"><use xlink:href="#E" x=".5" y=".5"/><defs><radialGradient id="A" cx="83%" cy="19%" r="96%" fx="83%" fy="19%"><stop offset="0%" stop-color="#fff000"/><stop offset="100%" stop-color="#f5911e"/></radialGradient><radialGradient id="B" cx="-8%" cy="-199%" r="597%" fx="-8%" fy="-199%"><stop offset="0%" stop-color="#fff000"/><stop offset="100%" stop-color="#f5911e"/></radialGradient><path id="C" d="M147.222 112.116c-3.822 0-7.455-.972-10.672-2.608-4.124 9.58-13.04 16.74-24.072 18.067l-3.577.18c-15.22 0-28.012-11.404-29.827-26.558l-.245-1.246c-1.805-9.58-6.85-17.764-13.942-23.586 2.363.486 4.85.668 7.4.668 8.063 0 16.43-2.3 24.92-6.85l.18-.123c.123-.06.245-.18.362-.18 0 0 2.663-1.578 6.732-2.608.18 0 .362-.06.603-.06a33.23 33.23 0 0 1 3.456-.18c7.705 0 14.856 3.03 20.315 7.98 4.24-5.58 10.85-9.16 18.432-9.16.424 0 .8.058 1.223.058a49.4 49.4 0 0 0-10.003-9.457c-8.3-6.67-17.702-10.003-27.95-10.003-8.123 0-16.74 2.3-23.038 6.123-3.76 2-9.34 4.368-15.097 4.368-5.398 0-9.76-2-13.34-6.123-3.03-3.52-4.67-7.762-4.73-12.247.298-4.792 2.244-9.218 5.517-12.432 3.577-3.577 8.365-5.517 13.464-5.517a18.84 18.84 0 0 1 13.538 5.64c1.336 1.397 2.48 2.9 3.4 4.603 1.776 3.42 5.306 5.57 9.16 5.578a10.96 10.96 0 0 0 4.792-1.151c2.43-1.27 4.254-3.454 5.074-6.07a10.33 10.33 0 0 0-.706-7.88c-1.882-3.577-4.24-6.8-7.038-9.58C94.105 4.24 83.942-.025 73.344 0c-9.38.007-18.46 3.313-25.648 9.34-.2.108-.374.23-.546.367-.317.27-.62.552-.912.848l-.362.362c-.058.06-.123.123-.18.123-.123.123-.298.245-.424.424-.058.06-.18.18-.245.298a25.66 25.66 0 0 0-2.062 2.3l-.123.123c-.123.123-.245.298-.362.424-5.216 6.183-8.063 13.763-8.428 21.766-.486 10.063 2.967 19.9 9.76 27.675 1.397 1.578 2.787 3.03 4.368 4.305a39.39 39.39 0 0 0-13.1-.603C13.318 70.3-2.32 90.162.283 111.93c2.244 20.007 19.198 35.106 39.344 35.106a41.26 41.26 0 0 0 4.73-.302c4.002-.5 7.884-1.515 11.462-3.16 2.508-1.1 4.47-3.174 5.45-5.735a10.28 10.28 0 0 0-.234-7.91 10.4 10.4 0 0 0-9.457-6.123 9.88 9.88 0 0 0-4.184.912 19.52 19.52 0 0 1-5.517 1.515 27.76 27.76 0 0 1-2.307.122c-9.674-.03-17.8-7.23-18.98-16.854a18.78 18.78 0 0 1 4.002-14.069c3.123-3.984 7.705-6.557 12.734-7.156.746-.07 1.495-.1 2.244-.124 9.658.005 17.797 7.205 18.98 16.795.058.424.123.8.18 1.15 1.94 11.818 8.123 22.613 17.28 30.376a50.71 50.71 0 0 0 32.742 12.003c2.005-.002 4-.123 6-.362 21.766-2.608 38.684-18.68 43.383-38.87-3.16 1.82-6.97 2.852-10.97 2.852z"/><path id="D" d="M134.856 89c.001-6.83 5.538-12.367 12.368-12.368S159.6 82.18 159.592 89s-5.538 12.367-12.368 12.368S134.857 95.84 134.856 89z"/></defs><symbol id="E" overflow="visible"><g stroke="none" fill-rule="nonzero"><use xlink:href="#C" fill="url(#A)"/><use xlink:href="#C" fill="#f6921e" opacity=".6"/><use xlink:href="#D" fill="url(#B)"/><use xlink:href="#D" fill="#f6921e" opacity=".6"/></g></symbol></svg>