<svg xmlns="http://www.w3.org/2000/svg" viewBox="0 0 838.1 838.4">
    <defs>
        <style>.cls-1{fill:#f58536 !important;}</style>
    </defs>
    <g id="Layer_2" data-name="Layer 2">
        <g id="Layer_1-2" data-name="Layer 1">
            <path class="cls-1"
                  d="M419,838.4C187.5,838.4-.3,650.4,0,418.9.3,187,187.7-.2,419.5,0,650.9.2,838.2,187.9,838.1,419.4,837.8,650.9,650.3,838.4,419,838.4Zm40.5-215.9,4.6,1.3c27.3,6.6,54.6,13.3,82,19.8,3.4.8,4.6,2.1,4.5,5.7-.3,7.5-.1,15-.1,22.5v25.3H682V565.8H550.4V591c-14.1-18-27.2-34.8-40.6-52-6,9.6-11.5,18.4-17.2,27.4-61.9-39.1-123.4-77.9-185.8-117.3H463v27.6c29.3-10.9,58-21.7,87.8-32.8v48.4H682.1V360.9H550.3v48c-29.5-11-58.2-21.7-87.6-32.7v28H306.3c62.1-39.6,123.2-78.5,184.6-117.6,6.3,8.9,12.4,17.5,18.9,26.6,13.4-16.9,26.5-33.4,39.7-49.9.4.2.9.3,1.3.5v23.6H682.1V156.1H550.6v5.8c0,13.8-.1,27.7.1,41.5.1,3.8-1,5.5-4.9,6.4-19.5,4.4-38.8,9.2-58.3,13.9-9.2,2.2-18.3,4.5-28,6.8,4.9,9.1,9.3,17.6,14,26.4C397,306,320.8,354.9,243.6,404.5V317.1H97.3V536.3c1.4.1,2.4.3,3.4.3q69.3,0,138.5.1c4.2,0,4.5-1.9,4.5-5.2-.1-25.5,0-51,0-76.5v-6.3c76.8,49.7,152.4,98.6,228.2,147.6C467.6,605.2,463.7,613.6,459.5,622.5Z"/>
        </g>
    </g>
</svg>