<svg xmlns="http://www.w3.org/2000/svg" xmlns:xlink="http://www.w3.org/1999/xlink" viewBox="0 0 195.02 158.77"><defs><style>.cls-1{fill:url(#linear-gradient);}</style><linearGradient id="linear-gradient" x1="-163.06" y1="348.7" x2="-304.41" y2="305.1" gradientTransform="matrix(1.6, 0, 0, -1.6, 530.6, 579.44)" gradientUnits="userSpaceOnUse"><stop offset="0" stop-color="#fff100"/><stop offset="1" stop-color="#f05a28"/></linearGradient></defs><g id="Layer_2" data-name="Layer 2"><g id="Layer_1-2" data-name="Layer 1"><path class="cls-1" d="M7.46,40H3.79a3.79,3.79,0,0,0,0,7.58H7.46a3.79,3.79,0,1,0,0-7.58ZM77.57,95.33H73.9a3.79,3.79,0,0,0,0,7.58h3.67a3.79,3.79,0,1,0,0-7.58ZM74.5,59.22a3.79,3.79,0,0,0-3.8-3.79H58A3.79,3.79,0,0,0,58,63H70.7a3.8,3.8,0,0,0,3.8-3.79ZM194.77,35.38l-3.86-21.67A15.81,15.81,0,0,0,174.51,0H26A10.05,10.05,0,0,0,15.58,9.7a10.2,10.2,0,0,0,.26,2.64l4.06,23c0,.18.08.36.13.54h0c.48,2.82-.94,3.95-2.22,4.37h0a3.79,3.79,0,0,0,1.26,7.36H184.62a10.06,10.06,0,0,0,10.15-12.27Zm-50.53,86.91c-1.6-8.4-6.4-11.52-11.82-11.52H93.18a3.84,3.84,0,0,0-.38,7.65h0c1.25.22,2.59,1.85,3.44,5.89l4,22.4A15.34,15.34,0,0,0,115,158.77l23.4-.11a10,10,0,0,0,10.31-12.18Zm-51.87-19.1h42.57a3.84,3.84,0,0,0,.95-.15c3.93-.83,4.13-4,3.61-7.21l-5.42-29.78c-1.49-7.74-6-10.8-11.89-10.8h-39a3.79,3.79,0,0,0-.45,7.55h0c1.3.24,2.72,2,3.55,6.4L90.42,92h0a3.07,3.07,0,0,1-2.17,3.76l-.25.06h0a3.77,3.77,0,0,0,1.26,7.34h3Z"/></g></g></svg>