<svg xmlns="http://www.w3.org/2000/svg" viewBox="0 0 28.83 29"><defs><style>.cls-1{fill:#e53c3c;}</style></defs><g id="Layer_2" data-name="Layer 2"><g id="Kubernetes_Components" data-name="Kubernetes Components"><g id="Reference"><g id="Icon_Test" data-name="Icon Test"><rect class="cls-1" x="24.25" y="20.04" width="1.16" height="9.79" transform="translate(-10.36 24.86) rotate(-45)"/><rect class="cls-1" x="3.76" y="-0.99" width="1.16" height="10.85" transform="translate(-1.87 4.37) rotate(-45)"/><rect class="cls-1" x="1.4" y="24.07" width="5.73" height="1.16" transform="translate(-16.18 10.23) rotate(-45)"/><rect class="cls-1" x="21.66" y="3.81" width="5.73" height="1.16" transform="translate(4.08 18.63) rotate(-45)"/><path class="cls-1" d="M27.68,13.91a13.16,13.16,0,0,0-2.49-7.19l-.94.68a12.16,12.16,0,0,1,2.28,6.68H25.44v.84h1.09a12.07,12.07,0,0,1-2.28,6.71l.94.67a13.09,13.09,0,0,0,2.49-7.21h1.15V13.91Z"/><path class="cls-1" d="M7,4.52a12.69,12.69,0,0,1,6.7-2.22V3.39h1.18V2.3a12.76,12.76,0,0,1,6.71,2.22l.71-.91a13.91,13.91,0,0,0-7.42-2.44V0H13.74V1.17A13.93,13.93,0,0,0,6.32,3.61Z"/><path class="cls-1" d="M21.63,24.52a12.76,12.76,0,0,1-6.71,2.22V25.61H13.74v1.13A12.69,12.69,0,0,1,7,24.52l-.72.91a14,14,0,0,0,7.42,2.44V29h1.18V27.87a14,14,0,0,0,7.42-2.44Z"/><path class="cls-1" d="M3.57,22.51l.91-.7a12.7,12.7,0,0,1-2.22-6.72H3.39V13.91H2.26A12.9,12.9,0,0,1,4.48,7.22l-.91-.7a14,14,0,0,0-2.44,7.39H0v1.18H1.13A13.82,13.82,0,0,0,3.57,22.51Z"/><path class="cls-1" d="M17.26,6.84a4.4,4.4,0,0,0-2.84-1h0a3.83,3.83,0,0,0-4.07,3.53v2.84H9.23a.58.58,0,0,0-.58.58V21a.58.58,0,0,0,.17.41.57.57,0,0,0,.41.17H19.6a.58.58,0,0,0,.58-.58V12.79a.54.54,0,0,0-.17-.4.52.52,0,0,0-.41-.18H18.49V9.37A3.36,3.36,0,0,0,17.26,6.84ZM11.53,9.37A2.66,2.66,0,0,1,14.41,7h0a3.23,3.23,0,0,1,2.08.72,2.22,2.22,0,0,1,.81,1.65v2.84H11.53ZM19,15.09H17.3v1.19H19v1H17.3v1.19H19v1.86H9.67v-7H19Z"/><path class="cls-1" d="M13.74,17.57v1.59h1.18V17.57a1.69,1.69,0,0,0,.74-2.7,1.66,1.66,0,0,0-1.31-.6,1.7,1.7,0,0,0-1.65,2.28A1.72,1.72,0,0,0,13.74,17.57Zm.62-2.25a.63.63,0,1,1-.62.63h0A.62.62,0,0,1,14.36,15.32Z"/></g></g></g></g></svg>